<?xml version="1.0" encoding="UTF-8"?>
<svg version="1.1" xmlns="http://www.w3.org/2000/svg" width="512" height="512">
<path d="M0 0 C0.92425781 -0.01546875 1.84851563 -0.0309375 2.80078125 -0.046875 C10.08776762 -0.00517551 13.32587599 1.59794376 18.6875 6.5 C21.50149894 11.15765342 22.32495559 16.22968247 23.5 21.5 C24.13151267 23.8456185 24.81167824 26.17029557 25.5 28.5 C29.87245431 29.6014157 31.79588312 29.90056055 35.7890625 27.62890625 C36.90816035 26.78277125 38.01992873 25.92687373 39.125 25.0625 C44.97336309 20.90438331 49.38014065 19.34915406 56.734375 19.953125 C64.21318312 21.43198536 69.6088442 27.94364701 74.5 33.5 C77.61537204 38.39558463 77.40496255 43.92274932 76.5 49.5 C74.58062853 53.50913101 72.17941377 56.96584112 69.5 60.5 C66.93312633 64.3503105 67.66711276 66.08569763 68.5 70.5 C72.31577963 71.70205614 76.14635989 71.72194982 80.109375 71.81640625 C81.19958954 71.8475779 81.19958954 71.8475779 82.31182861 71.87937927 C84.62445991 71.94455512 86.93720093 72.0036104 89.25 72.0625 C90.82162575 72.10571566 92.39324056 72.14933092 93.96484375 72.19335938 C97.80978453 72.30020356 101.65483524 72.40156024 105.5 72.5 C105.5825 71.736875 105.665 70.97375 105.75 70.1875 C106.67509917 66.8725613 107.59622867 66.25020523 110.5 64.5 C112.74103266 64.12280184 112.74103266 64.12280184 115.24062443 64.11968327 C116.19625532 64.11124332 117.15188622 64.10280338 118.13647562 64.09410769 C119.18344077 64.10011773 120.23040592 64.10612778 121.30909729 64.11231995 C122.98092202 64.10424164 122.98092202 64.10424164 124.68652099 64.09600013 C128.4350867 64.08165055 132.18330275 64.08884183 135.93188477 64.09594727 C138.61411158 64.09024717 141.29631298 64.08338523 143.97853088 64.07514954 C150.51760557 64.05793701 157.05658426 64.05712705 163.59567571 64.06236244 C168.91347876 64.06640292 174.23125342 64.06496202 179.5490551 64.05961418 C180.6841517 64.05849155 180.6841517 64.05849155 181.84217955 64.05734624 C183.37952838 64.05581474 184.9168772 64.0542764 186.45422601 64.05273127 C200.87965505 64.03899589 215.3050299 64.04444987 229.73045772 64.05591648 C242.91454026 64.06583704 256.09848222 64.05293046 269.28254307 64.02898229 C282.82593606 64.00456737 296.36926364 63.99499009 309.91267818 64.00163502 C317.51367618 64.00512359 325.11456623 64.00291982 332.71554756 63.98538399 C339.19044763 63.9706315 345.66516386 63.97006549 352.14006043 63.9874549 C355.44074348 63.99594488 358.74103249 63.99598074 362.0417099 63.98280334 C365.62878625 63.96957895 369.21497841 63.98115561 372.80201721 63.99879456 C373.83336731 63.98918955 374.86471741 63.97958454 375.92732054 63.96968848 C387.90558597 64.09039899 397.12509665 68.30055271 405.62890625 76.5703125 C412.54507469 83.88132665 416.61208557 91.72890733 416.63701439 101.87814331 C416.64208893 102.97597672 416.64716347 104.07381014 416.65239179 105.20491123 C416.65313843 107.0136291 416.65313843 107.0136291 416.65390015 108.85888672 C416.6582824 110.14015662 416.66266465 111.42142653 416.6671797 112.74152279 C416.67913441 116.30081289 416.6847911 119.86008945 416.68936086 123.41939569 C416.69532123 127.25736392 416.70693008 131.09531599 416.71765137 134.93327332 C416.74216677 144.20426349 416.75680196 153.475259 416.76971143 162.74627161 C416.77342422 165.36563177 416.77739739 167.98499141 416.7814641 170.60435104 C416.80670325 186.87605511 416.82875275 203.14776004 416.84119225 219.41947937 C416.84412187 223.18801883 416.84708354 226.95655826 416.85009766 230.72509766 C416.85084371 231.66173158 416.85158976 232.5983655 416.85235842 233.56338227 C416.86500604 248.72878293 416.89822151 263.89406619 416.93989949 279.059412 C416.98235519 294.63568829 417.00589154 310.21190454 417.01111281 325.78823853 C417.01452297 334.53116739 417.0262314 343.27391284 417.05921555 352.01678467 C417.08726733 359.46442071 417.098193 366.91183573 417.08702008 374.35952049 C417.08184633 378.15656123 417.08463564 381.9531395 417.10948563 385.75011253 C417.13625823 389.87547434 417.12387422 393.99982607 417.10800171 398.12524414 C417.1218838 399.31321028 417.13576588 400.50117641 417.15006864 401.72514153 C417.03775638 413.60973341 412.87789955 423.97454449 404.5 432.5 C393.40100917 442.36576962 380.6339827 444.11046555 366.25463867 443.95410156 C364.77490774 443.95297017 363.29517458 443.95361263 361.81544495 443.95587158 C357.84093254 443.95700829 353.86691373 443.93367067 349.89251494 443.90557575 C345.72323542 443.88038573 341.55394166 443.87820635 337.38459778 443.87347412 C329.50841174 443.86109562 321.63245067 443.82834428 313.75636321 443.78807616 C304.78165737 443.74319782 295.80694018 443.72133123 286.83214986 443.70129442 C268.38796933 443.6596064 249.94401109 443.5885392 231.5 443.5 C231.5 448.78 231.5 454.06 231.5 459.5 C233.15 460.16 234.8 460.82 236.5 461.5 C238.89629455 465.09444183 238.75781331 467.64861652 238.6953125 471.79296875 C238.69106766 472.85201164 238.69106766 472.85201164 238.68673706 473.93244934 C238.67555464 476.18430633 238.6504542 478.43576352 238.625 480.6875 C238.61496767 482.21548904 238.60584226 483.74348433 238.59765625 485.27148438 C238.57562172 489.01447663 238.54110567 492.75717056 238.5 496.5 C239.4787207 496.48428955 240.45744141 496.4685791 241.46582031 496.45239258 C245.10359438 496.3980143 248.74133264 496.36362152 252.37939453 496.33520508 C253.95269822 496.32013636 255.52596002 496.29967755 257.09912109 496.27368164 C259.36306096 496.23721262 261.62644457 496.22025492 263.890625 496.20703125 C264.59181458 496.19154739 265.29300415 496.17606354 266.01544189 496.16011047 C269.07592673 496.15906035 271.20286557 496.33927728 273.91699219 497.80737305 C276.44388171 500.50924304 276.43767885 502.88537351 276.5 506.5 C275.15437601 509.44755732 274.41445456 511.04277272 271.5 512.5 C268.71262257 512.60241396 265.94997342 512.64337307 263.16213989 512.64044189 C262.2893731 512.64341302 261.41660631 512.64638414 260.51739204 512.6494453 C257.57554998 512.65815799 254.63374849 512.6596427 251.69189453 512.66113281 C249.58974113 512.66575914 247.48758858 512.67078354 245.38543701 512.67617798 C239.66232921 512.68932112 233.93923315 512.69575056 228.21611261 512.70018864 C224.64375684 512.70311603 221.07140429 512.70722018 217.49905014 512.71169281 C206.33124402 512.72537223 195.16344526 512.73503694 183.99563134 512.7388947 C171.08662947 512.74337794 158.17773336 512.76093634 145.26876366 512.7898953 C135.30186212 512.81148127 125.3349904 512.82159732 115.36806571 512.82293582 C109.40990825 512.82398598 103.45185013 512.82993865 97.49371719 512.84775543 C91.89100936 512.86418303 86.28847613 512.86641752 80.68575287 512.85761642 C78.62657836 512.85684322 76.56739466 512.86122587 74.50824356 512.87107468 C71.70256103 512.8837097 68.89750481 512.87796356 66.09182739 512.86749268 C65.27218006 512.87554908 64.45253273 512.88360548 63.6080476 512.89190602 C60.35007207 512.86336282 57.92875123 512.7269754 55.02160454 511.18796921 C52.57109371 508.46953172 52.56170242 506.07874045 52.5 502.5 C53.84562399 499.55244268 54.58554544 497.95722728 57.5 496.5 C59.90838678 496.41360131 62.28733881 496.38432236 64.6953125 496.40234375 C65.40275604 496.4037587 66.11019958 496.40517365 66.83908081 496.40663147 C69.10109669 496.412234 71.36301398 496.42478682 73.625 496.4375 C75.15755065 496.44251468 76.69010286 496.44707764 78.22265625 496.45117188 C81.98180888 496.46220423 85.74088772 496.47947048 89.5 496.5 C89.47381592 495.55680908 89.44763184 494.61361816 89.4206543 493.6418457 C89.33523078 490.12866855 89.27265702 486.61660092 89.2253418 483.1027832 C89.20025891 481.58470199 89.1661834 480.06674082 89.12280273 478.54907227 C89.06186707 476.36184035 89.03373105 474.17620961 89.01171875 471.98828125 C88.98553467 470.67384033 88.95935059 469.35939941 88.93237305 468.00512695 C89.64092803 463.62976186 91.0211141 462.16055016 94.5 459.5 C95.49 459.5 96.48 459.5 97.5 459.5 C97.5 454.22 97.5 448.94 97.5 443.5 C95.63046661 443.50666183 93.76093323 443.51332367 91.83474731 443.52018738 C74.207937 443.58102772 56.58114799 443.62616718 38.95425606 443.65543652 C29.89231261 443.67088477 20.83044771 443.69193514 11.76855469 443.72631836 C3.86732296 443.75628335 -4.03385185 443.77558983 -11.93513882 443.78226548 C-16.11620261 443.78616574 -20.29710362 443.79528905 -24.47811508 443.81719017 C-28.41957196 443.83766769 -32.36080019 443.84381123 -36.30230522 443.83932304 C-37.74296883 443.84014324 -39.1836407 443.84604154 -40.62425804 443.85761642 C-54.94830064 443.96698642 -66.39909041 441.15274271 -77.25 431.375 C-83.16166914 425.1131135 -87.60784104 416.12648677 -87.63701439 407.42698669 C-87.64208893 406.62030831 -87.64716347 405.81362993 -87.65239179 404.98250675 C-87.65288955 404.10196849 -87.65338731 403.22143023 -87.65390015 402.31420898 C-87.6582824 401.37439651 -87.66266465 400.43458403 -87.6671797 399.46629238 C-87.68056022 396.30955748 -87.68674479 393.15285048 -87.69287109 389.99609375 C-87.70077234 387.73601149 -87.7090413 385.4759305 -87.71765137 383.21585083 C-87.74385808 375.78974613 -87.75917274 368.3636358 -87.7734375 360.9375 C-87.7787968 358.38312781 -87.78417431 355.82875566 -87.78956985 353.27438354 C-87.81119217 342.65422552 -87.83008277 332.03406882 -87.84119225 321.41389465 C-87.8441219 318.65971879 -87.84708358 315.90554296 -87.85009766 313.15136719 C-87.85084371 312.46683704 -87.85158976 311.78230689 -87.85235842 311.0770334 C-87.86502442 299.97688588 -87.89826723 288.87689808 -87.93989949 277.77682531 C-87.98228883 266.38162687 -88.00547555 254.98654003 -88.01111281 243.59125233 C-88.01477412 237.19262655 -88.02687926 230.79427199 -88.05921555 224.39572144 C-88.08917859 218.38088455 -88.09565001 212.36648469 -88.08383179 206.3515892 C-88.0836101 204.14082082 -88.09199323 201.93003283 -88.10948563 199.71933365 C-88.13202475 196.70761951 -88.1239532 193.69751084 -88.10800171 190.68579102 C-88.1218838 189.80525275 -88.13576588 188.92471449 -88.15006864 188.01749325 C-88.07287557 182.12737536 -88.07287557 182.12737536 -85.14949989 178.92588806 C-82.5 177.5 -82.5 177.5 -79.5 177.5 C-79.5 158.03 -79.5 138.56 -79.5 118.5 C-81.48 118.17 -83.46 117.84 -85.5 117.5 C-90.30347416 114.90612395 -92.96185831 112.32566855 -95.5 107.5 C-96.12451053 103.86338201 -96.14965273 100.30811739 -96.125 96.625 C-96.15722656 95.66980469 -96.18945312 94.71460937 -96.22265625 93.73046875 C-96.23114903 87.53923353 -95.17734098 83.76869523 -91.10009766 79.04589844 C-84.85990523 73.01707658 -75.73115524 72.78285757 -67.5 72.5 C-66.47259845 68.99474765 -66.03548348 67.07580944 -66.5 63.5 C-67.90819247 61.10664061 -69.32009738 58.92655528 -70.9375 56.6875 C-74.89466491 51.12033428 -76.68001531 47.09131009 -76.046875 40.04296875 C-74.43733761 32.55861987 -66.9202759 25.35700759 -60.578125 21.2578125 C-55.52973751 19.41685917 -49.27607563 19.63393931 -44.18359375 21.22265625 C-40.17347863 23.16100935 -36.76173694 25.69674728 -33.43359375 28.64453125 C-30.36925947 30.00026702 -27.70292483 29.12078091 -24.5 28.5 C-24.26216797 26.90671875 -24.26216797 26.90671875 -24.01953125 25.28125 C-22.54853988 16.11058898 -21.29678281 8.64776243 -13.98828125 2.328125 C-9.23105188 -0.16502544 -5.28875145 -0.08851467 0 0 Z " fill="#C6D8F8" transform="translate(95.5,-0.5)"/>
<path d="M0 0 C1.11540425 -0.00709439 2.23080849 -0.01418877 3.38001287 -0.02149814 C7.12570961 -0.03913031 10.87037588 -0.02094501 14.61605835 -0.00291443 C17.29845062 -0.00805142 19.98077312 -0.01514211 22.66314697 -0.02459717 C29.19881873 -0.04298481 35.73419167 -0.03445256 42.26985414 -0.01650894 C47.5847844 -0.00248107 52.89963355 0.00140945 58.21458054 -0.00195122 C59.3494739 -0.00266738 59.3494739 -0.00266738 60.50729441 -0.00339801 C62.04440171 -0.00442436 63.581509 -0.00547972 65.11861627 -0.00656378 C78.71547959 -0.01513402 92.31219884 0.00155068 105.9090271 0.03126526 C119.08942731 0.06006925 132.26961969 0.06720285 145.45004272 0.05177307 C159.80805942 0.03498769 174.1659774 0.03100315 188.52399671 0.04848343 C190.05727155 0.05032775 191.5905464 0.05216248 193.12382126 0.0539875 C193.8781647 0.05489959 194.63250814 0.05581168 195.40971047 0.05675141 C200.71207765 0.06234493 206.01439648 0.05906038 211.31676102 0.05244255 C217.78799631 0.04468653 224.25902749 0.05154204 230.73022182 0.07661759 C234.02887299 0.08906448 237.32714446 0.09315093 240.62581635 0.08407593 C244.21067278 0.07535214 247.79461433 0.09138902 251.37939453 0.11352539 C252.41006251 0.10528462 253.44073049 0.09704386 254.50263083 0.08855337 C266.47722033 0.22447839 275.69713919 4.43009777 284.19955444 12.69850159 C291.11572288 20.00951574 295.18273376 27.85709641 295.20766258 38.0063324 C295.2152744 39.65308252 295.2152744 39.65308252 295.22303998 41.33310032 C295.22353774 42.53891223 295.2240355 43.74472414 295.22454834 44.98707581 C295.22893059 46.26834571 295.23331285 47.54961561 295.2378279 48.86971188 C295.2497826 52.42900198 295.2554393 55.98827853 295.26000905 59.54758477 C295.26596942 63.385553 295.27757827 67.22350508 295.28829956 71.0614624 C295.31281497 80.33245257 295.32745016 89.60344809 295.34035963 98.8744607 C295.34407241 101.49382086 295.34804558 104.11318049 295.35211229 106.73254013 C295.37735144 123.0042442 295.39940094 139.27594913 295.41184044 155.54766846 C295.41477006 159.31620792 295.41773173 163.08474735 295.42074585 166.85328674 C295.4214919 167.78992067 295.42223795 168.72655459 295.42300661 169.69157135 C295.43565423 184.85697202 295.46886971 200.02225528 295.51054768 215.18760109 C295.55300338 230.76387738 295.57653973 246.34009363 295.581761 261.91642761 C295.58517117 270.65935648 295.5968796 279.40210193 295.62986374 288.14497375 C295.65791552 295.5926098 295.66884119 303.04002482 295.65766828 310.48770958 C295.65249453 314.28475032 295.65528384 318.08132859 295.68013382 321.87830162 C295.70690642 326.00366343 295.69452241 330.12801516 295.6786499 334.25343323 C295.69253199 335.44139936 295.70641408 336.6293655 295.72071683 337.85333061 C295.60840458 349.7379225 291.44854774 360.10273358 283.07064819 368.62818909 C271.97165737 378.49395871 259.2046309 380.23865464 244.82528687 380.08229065 C243.34555594 380.08115925 241.86582277 380.08180172 240.38609314 380.08406067 C236.41158073 380.08519737 232.43756192 380.06185976 228.46316314 380.03376484 C224.29388361 380.00857482 220.12458986 380.00639543 215.95524597 380.00166321 C208.07905993 379.98928471 200.20309887 379.95653336 192.32701141 379.91626525 C183.35230557 379.87138691 174.37758837 379.84952032 165.40279806 379.82948351 C146.95861752 379.78779548 128.51465929 379.71672829 110.07064819 379.62818909 C110.07064819 384.90818909 110.07064819 390.18818909 110.07064819 395.62818909 C111.72064819 396.28818909 113.37064819 396.94818909 115.07064819 397.62818909 C117.46694275 401.22263091 117.3284615 403.77680561 117.26596069 407.92115784 C117.26171585 408.98020073 117.26171585 408.98020073 117.25738525 410.06063843 C117.24620283 412.31249541 117.2211024 414.5639526 117.19564819 416.81568909 C117.18561586 418.34367813 117.17649045 419.87167341 117.16830444 421.39967346 C117.14626992 425.14266572 117.11175386 428.88535965 117.07064819 432.62818909 C118.0493689 432.61247864 119.0280896 432.59676819 120.03646851 432.58058167 C123.67424257 432.52620338 127.31198084 432.4918106 130.95004272 432.46339417 C132.52334641 432.44832545 134.09660821 432.42786663 135.66976929 432.40187073 C137.93370916 432.3654017 140.19709276 432.348444 142.46127319 432.33522034 C143.16246277 432.31973648 143.86365234 432.30425262 144.58609009 432.28829956 C147.64657493 432.28724944 149.77351376 432.46746637 152.48764038 433.93556213 C155.0145299 436.63743213 155.00832705 439.0135626 155.07064819 442.62818909 C153.7250242 445.57574641 152.98510275 447.17096181 150.07064819 448.62818909 C147.28327077 448.73060304 144.52062161 448.77156216 141.73278809 448.76863098 C140.86002129 448.7716021 139.9872545 448.77457323 139.08804023 448.77763438 C136.14619817 448.78634708 133.20439669 448.78783179 130.26254272 448.7893219 C128.16038933 448.79394822 126.05823677 448.79897263 123.95608521 448.80436707 C118.23297741 448.8175102 112.50988135 448.82393965 106.78676081 448.82837772 C103.21440503 448.83130512 99.64205249 448.83540926 96.06969833 448.8398819 C84.90189221 448.85356132 73.73409345 448.86322603 62.56627953 448.86708379 C49.65727766 448.87156703 36.74838155 448.88912543 23.83941185 448.91808438 C13.87251031 448.93967036 3.90563859 448.9497864 -6.06128609 448.95112491 C-12.01944356 448.95217507 -17.97750167 448.95812773 -23.93563461 448.97594452 C-29.53834244 448.99237212 -35.14087567 448.99460661 -40.74359894 448.98580551 C-42.80277345 448.9850323 -44.86195714 448.98941495 -46.92110825 448.99926376 C-49.72679078 449.01189879 -52.531847 449.00615265 -55.33752441 448.99568176 C-56.56699541 449.00776637 -56.56699541 449.00776637 -57.8213042 449.02009511 C-61.07927974 448.99155191 -63.50060058 448.85516449 -66.40774727 447.31615829 C-68.85825809 444.59772081 -68.86764939 442.20692953 -68.92935181 438.62818909 C-67.58372781 435.68063177 -66.84380637 434.08541637 -63.92935181 432.62818909 C-61.52096503 432.54179039 -59.14201299 432.51251145 -56.73403931 432.53053284 C-56.02659576 432.53194778 -55.31915222 432.53336273 -54.590271 432.53482056 C-52.32825512 432.54042308 -50.06633782 432.55297591 -47.80435181 432.56568909 C-46.27180115 432.57070377 -44.73924895 432.57526673 -43.20669556 432.57936096 C-39.44754293 432.59039332 -35.68846409 432.60765957 -31.92935181 432.62818909 C-31.95553589 431.68499817 -31.98171997 430.74180725 -32.00869751 429.77003479 C-32.09412102 426.25685764 -32.15669479 422.74479001 -32.20401001 419.23097229 C-32.2290929 417.71289107 -32.2631684 416.19492991 -32.30654907 414.67726135 C-32.36748474 412.49002943 -32.39562076 410.30439869 -32.41763306 408.11647034 C-32.44381714 406.80202942 -32.47000122 405.4875885 -32.49697876 404.13331604 C-31.78842378 399.75795094 -30.40823771 398.28873925 -26.92935181 395.62818909 C-25.93935181 395.62818909 -24.94935181 395.62818909 -23.92935181 395.62818909 C-23.92935181 390.34818909 -23.92935181 385.06818909 -23.92935181 379.62818909 C-25.79888519 379.63485092 -27.66841858 379.64151276 -29.59460449 379.64837646 C-47.2214148 379.7092168 -64.84820382 379.75435627 -82.47509575 379.7836256 C-91.5370392 379.79907386 -100.5989041 379.82012423 -109.66079712 379.85450745 C-117.56202884 379.88447244 -125.46320366 379.90377892 -133.36449063 379.91045457 C-137.54555441 379.91435483 -141.72645543 379.92347814 -145.90746689 379.94537926 C-149.84892377 379.96585677 -153.790152 379.97200032 -157.73165703 379.96751213 C-159.17232064 379.96833232 -160.6129925 379.97423062 -162.05360985 379.98580551 C-176.37765245 380.09517551 -187.82844222 377.28093179 -198.67935181 367.50318909 C-204.59102094 361.24130258 -209.03719284 352.25467586 -209.0663662 343.55517578 C-209.07144074 342.7484974 -209.07651528 341.94181902 -209.0817436 341.11069584 C-209.08224136 340.23015758 -209.08273911 339.34961931 -209.08325195 338.44239807 C-209.08763421 337.50258559 -209.09201646 336.56277311 -209.09653151 335.59448147 C-209.10991203 332.43774656 -209.11609659 329.28103957 -209.1222229 326.12428284 C-209.13012414 323.86420058 -209.13839311 321.60411958 -209.14700317 319.34403992 C-209.17320989 311.91793521 -209.18852454 304.49182489 -209.20278931 297.06568909 C-209.20814861 294.5113169 -209.21352611 291.95694475 -209.21892166 289.40257263 C-209.24054398 278.7824146 -209.25943458 268.16225791 -209.27054405 257.54208374 C-209.2734737 254.78790788 -209.27643539 252.03373205 -209.27944946 249.27955627 C-209.28019551 248.59502612 -209.28094156 247.91049598 -209.28171022 247.20522249 C-209.29437623 236.10507497 -209.32761903 225.00508717 -209.3692513 213.9050144 C-209.41164064 202.50981596 -209.43482736 191.11472911 -209.44046462 179.71944141 C-209.44412593 173.32081564 -209.45623106 166.92246107 -209.48856735 160.52391052 C-209.5185304 154.50907364 -209.52500182 148.49467378 -209.51318359 142.47977829 C-209.51296191 140.26900991 -209.52134504 138.05822192 -209.53883743 135.84752274 C-209.56137655 132.8358086 -209.553305 129.82569993 -209.53735352 126.8139801 C-209.55817665 125.49317271 -209.55817665 125.49317271 -209.57942045 124.14568233 C-209.50221472 118.25459855 -209.50221472 118.25459855 -206.5788517 115.0579834 C-203.92935181 113.62818909 -203.92935181 113.62818909 -200.92935181 113.56568909 C-197.92935181 114.62818909 -197.92935181 114.62818909 -192.92935181 119.62818909 C-192.92935181 170.77818909 -192.92935181 221.92818909 -192.92935181 274.62818909 C-37.16935181 274.62818909 118.59064819 274.62818909 279.07064819 274.62818909 C278.97783569 215.78506409 278.97783569 215.78506409 278.88314819 155.75318909 C278.87646118 143.36674866 278.86977417 130.98030823 278.86288452 118.21852112 C278.83300898 107.11510189 278.83300898 107.11510189 278.79652405 96.01170349 C278.7804509 91.06624816 278.77833927 86.12099831 278.78468323 81.17552185 C278.79232166 74.8639935 278.7760671 68.55294805 278.74263132 62.24150825 C278.73441753 59.92725482 278.73454398 57.61295291 278.74403918 55.29870439 C278.75568086 52.16659194 278.73652367 49.03608638 278.70988464 45.90409851 C278.72055812 45.00355177 278.73123159 44.10300503 278.74222851 43.17516899 C278.63683285 36.48775002 276.82324254 31.19337378 273.07064819 25.62818909 C267.94550486 20.74384653 262.46886347 17.37862106 255.23427486 17.37764931 C254.28278622 17.37265061 253.33129757 17.36765191 252.35097593 17.36250174 C250.79524448 17.36949656 250.79524448 17.36949656 249.20808411 17.37663269 C248.09999156 17.37366255 246.99189901 17.37069241 245.85022789 17.36763227 C242.12994787 17.35998169 238.40982523 17.36649066 234.68954468 17.37281799 C232.02537468 17.37006866 229.36121808 17.36650753 226.697052 17.36184692 C220.95674749 17.35321624 215.21647381 17.35140519 209.47616386 17.3537941 C201.17228588 17.35689108 192.86847608 17.34525561 184.56461526 17.3292443 C171.08624496 17.30328503 157.60787462 17.28326397 144.12948608 17.26979065 C143.32290623 17.26898028 142.51632638 17.26816991 141.68530471 17.26733498 C130.23238289 17.25610733 118.77946593 17.25083087 107.32653935 17.24794786 C106.5196563 17.24774387 105.71277326 17.24753988 104.88143921 17.24732971 C104.07553864 17.24712978 103.26963807 17.24692984 102.43931627 17.24672385 C89.01003426 17.24299352 75.58082628 17.22392768 62.15158135 17.19223535 C53.86655696 17.17330148 45.58172222 17.167371 37.29668213 17.17805253 C31.62275747 17.18436185 25.94896905 17.17635892 20.2750743 17.15699841 C16.99955773 17.14629471 13.7244408 17.14437459 10.44891548 17.15546989 C6.90103107 17.16652168 3.35405681 17.15323926 -0.19377136 17.13371277 C-1.23315639 17.14283743 -2.27254141 17.15196208 -3.34342295 17.16136324 C-10.27189471 17.08678198 -10.27189471 17.08678198 -13.53391933 14.81143761 C-15.56375467 11.63562289 -15.99539694 9.39276158 -15.92935181 5.62818909 C-11.70700104 -0.59440379 -6.86984555 -0.07787888 0 0 Z " fill="#2B3D66" transform="translate(216.92935180664063,63.37181091308594)"/>
<path d="M0 0 C0.69609375 -0.00817749 1.3921875 -0.01635498 2.109375 -0.02478027 C4.42585384 -0.04969806 6.74227068 -0.0661754 9.05883789 -0.08056641 C9.85081636 -0.08589008 10.64279484 -0.09121376 11.45877266 -0.09669876 C15.65886595 -0.12347088 19.85892924 -0.14282389 24.05908203 -0.15722656 C28.3798894 -0.17379299 32.69992184 -0.21849007 37.02043819 -0.26959801 C40.35525788 -0.30343059 43.68989835 -0.31482196 47.02487373 -0.32045364 C48.61596083 -0.32713298 50.20703753 -0.34226784 51.79795647 -0.36634445 C61.76172262 -0.50840492 70.52345809 -0.19479211 78.24082947 6.94863892 C84.53887185 13.56785532 85.78946464 20.29332351 85.70475769 29.10801697 C85.70732574 30.0876088 85.7098938 31.06720062 85.71253967 32.07647705 C85.71749434 35.36015334 85.70095289 38.6433678 85.68457031 41.92700195 C85.6836511 44.32079586 85.68405214 46.71459059 85.68566608 49.10838413 C85.6863431 55.51632817 85.66896102 61.924104 85.64783478 68.33200836 C85.63074452 74.34589669 85.62994512 80.35974419 85.62780762 86.37365723 C85.61206834 103.95925078 85.57018486 121.54481306 85.53149414 139.13037109 C85.46961914 178.42099609 85.40774414 217.71162109 85.34399414 258.19287109 C-8.37600586 258.19287109 -102.09600586 258.19287109 -198.65600586 258.19287109 C-194.15874358 250.3226621 -194.15874358 250.3226621 -191.37866211 246.81787109 C-190.7824707 246.05990234 -190.1862793 245.30193359 -189.57202148 244.52099609 C-188.96036133 243.75271484 -188.34870117 242.98443359 -187.71850586 242.19287109 C-183.56497326 236.94259447 -179.49864771 231.67610956 -175.65600586 226.19287109 C-174.99600586 226.89412109 -174.33600586 227.59537109 -173.65600586 228.31787109 C-172.6653319 229.28584211 -171.66430118 230.24326943 -170.65600586 231.19287109 C-169.83616211 231.97065918 -169.83616211 231.97065918 -168.99975586 232.76416016 C-163.37599042 237.55091389 -158.89059978 238.06428097 -151.65600586 237.81787109 C-150.23674805 237.82753906 -150.23674805 237.82753906 -148.78881836 237.83740234 C-142.76862441 237.74568194 -137.43124321 237.12152507 -132.65600586 233.19287109 C-128.03637756 227.30428125 -127.7295805 220.10953646 -127.23022461 212.90771484 C-126.55934222 206.98316195 -126.55934222 206.98316195 -123.93920898 204.69091797 C-120.9352446 203.04649428 -118.49719424 202.21190251 -115.06616211 202.13427734 C-111.67089155 203.62555501 -108.93772557 205.79673628 -106.09350586 208.13037109 C-98.81495793 214.03986551 -98.81495793 214.03986551 -89.78100586 215.50537109 C-88.77295898 215.52212891 -87.76491211 215.53888672 -86.72631836 215.55615234 C-80.31055642 214.79703547 -76.66011486 211.57887235 -72.46850586 206.88037109 C-71.62932617 205.95611328 -70.79014648 205.03185547 -69.92553711 204.07958984 C-66.04515103 199.14395247 -63.95439763 194.88427089 -64.17553711 188.61865234 C-65.45575853 182.15509542 -70.03212678 176.93636996 -74.09350586 171.94287109 C-76.20785901 169.19918045 -76.65600586 168.5986056 -76.65600586 165.00537109 C-76.16100586 163.61318359 -76.16100586 163.61318359 -75.65600586 162.19287109 C-75.50518555 161.35240234 -75.35436523 160.51193359 -75.19897461 159.64599609 C-73.65600586 157.19287109 -73.65600586 157.19287109 -71.73266602 156.48071289 C-69.1520186 155.93199073 -66.57974493 155.50765332 -63.96850586 155.13037109 C-56.52875416 153.99952884 -50.51929511 152.86936394 -44.87866211 147.50146484 C-41.50838194 142.06589515 -41.16993465 136.87526503 -41.09350586 130.63037109 C-41.07139038 129.42562134 -41.07139038 129.42562134 -41.04882812 128.1965332 C-41.16781399 121.2433411 -43.05854775 115.72372771 -48.09350586 110.81787109 C-53.60493613 107.32281775 -58.88846694 106.64339929 -65.30444336 105.89404297 C-68.23559581 105.53937352 -70.84411534 105.13016794 -73.65600586 104.19287109 C-74.89428711 102.30224609 -74.89428711 102.30224609 -75.96850586 99.94287109 C-76.51958008 98.79044922 -76.51958008 98.79044922 -77.08178711 97.61474609 C-77.84999109 94.37470211 -77.21492588 93.11584613 -75.65600586 90.19287109 C-74.2754124 88.15317309 -72.83249771 86.15483682 -71.34350586 84.19287109 C-70.58424805 83.18224609 -69.82499023 82.17162109 -69.04272461 81.13037109 C-66.72969917 78.28357056 -64.2513314 75.78003524 -61.65600586 73.19287109 C-60.14207774 71.34582462 -58.66503485 69.46816394 -57.21850586 67.56787109 C-56.79585449 67.01357422 -56.37320313 66.45927734 -55.93774414 65.88818359 C-51.64328343 60.2298895 -47.45221735 54.49491581 -43.25195312 48.76660156 C-38.13550907 41.80439946 -32.90377009 34.93462284 -27.65136719 28.07470703 C-22.32082249 21.09923787 -17.09175224 14.05333837 -11.90795898 6.96826172 C-11.36204102 6.22253906 -10.81612305 5.47681641 -10.25366211 4.70849609 C-9.77421143 4.05139648 -9.29476074 3.39429687 -8.80078125 2.71728516 C-6.27171914 -0.65048277 -4.2115733 0.04283473 0 0 Z " fill="#C6D8F8" transform="translate(410.656005859375,79.80712890625)"/>
<path d="M0 0 C156.09 0 312.18 0 473 0 C473 56.40338164 473 56.40338164 466.875 63.3125 C466.09769531 64.23482422 466.09769531 64.23482422 465.3046875 65.17578125 C456.57650538 72.0843593 447.0453123 71.5646671 436.45053101 71.50120544 C434.65345972 71.50510079 432.85639153 71.51074311 431.05933058 71.51797634 C426.13338427 71.53271503 421.20775815 71.52255914 416.2818222 71.50823963 C410.96480751 71.49712492 405.64783754 71.50907403 400.33082581 71.51808167 C389.92021289 71.53201212 379.5097213 71.52445961 369.09911416 71.50940608 C356.97707112 71.49254498 344.85505829 71.49575632 332.73300715 71.49950016 C311.10648545 71.50537826 289.48002198 71.49120844 267.85351562 71.46655273 C246.86423561 71.44262618 225.87503339 71.43555086 204.88574219 71.44604492 C182.0311233 71.45745111 159.17654039 71.45938834 136.32192194 71.44494683 C133.88557029 71.44342098 131.44921863 71.44190062 129.01286697 71.44038582 C127.81411888 71.439628 126.61537079 71.43887019 125.380297 71.43808941 C116.92860906 71.43334474 108.47693718 71.43519928 100.02524948 71.43945122 C89.72848007 71.44437496 79.43178424 71.43840634 69.13503169 71.41855692 C63.88052518 71.40867752 58.62613078 71.40358688 53.37161827 71.41144943 C48.56289336 71.4184978 43.7543948 71.4117213 38.94569977 71.3938458 C37.20494486 71.3897959 35.46416937 71.39081026 33.7234221 71.39736467 C31.35859413 71.40550776 28.99453024 71.39521175 26.62975121 71.38031673 C25.31586115 71.3792876 24.0019711 71.37825848 22.6482662 71.37719816 C16.90347644 70.78323818 12.23438129 68.64955434 7.8125 64.875 C7.17957031 64.35679687 6.54664063 63.83859375 5.89453125 63.3046875 C-7.97578684 46.43151704 0 17.0339641 0 0 Z " fill="#CB86FD" transform="translate(24,355)"/>
<path d="M0 0 C0.82113281 -0.02900391 1.64226562 -0.05800781 2.48828125 -0.08789062 C9.55424222 -0.16067786 14.8827731 1.60025834 20.0625 6.5 C24.82417863 14.43613105 25.65538167 23.25936254 26.75 32.3125 C27.99420647 32.8470256 29.24570936 33.36458611 30.5 33.875 C31.19609375 34.16503906 31.8921875 34.45507812 32.609375 34.75390625 C35.14320207 35.41510565 36.28069631 35.11623642 38.75 34.3125 C40.47312104 33.31621669 40.47312104 33.31621669 42.09765625 32.0625 C42.70287109 31.6190625 43.30808594 31.175625 43.93164062 30.71875 C44.55232422 30.2546875 45.17300781 29.790625 45.8125 29.3125 C52.67080548 24.21654546 57.22239114 22.62247974 65.75 23.3125 C74.77907042 25.91409656 80.78787394 33.65284232 85.75 41.3125 C87.49926653 46.56029958 87.89255242 50.98446688 85.3984375 56.06640625 C82.59636678 60.50404689 79.52686705 64.58382602 76.1875 68.625 C74.69754644 70.4509986 74.69754644 70.4509986 73.75 72.3125 C74.15847192 75.53806523 74.15847192 75.53806523 75.75 78.3125 C76.11588815 79.97232371 76.45462173 81.63868981 76.75 83.3125 C77.9565625 83.41046875 79.163125 83.5084375 80.40625 83.609375 C82.02091175 83.75957609 83.63549105 83.9106653 85.25 84.0625 C86.04148437 84.124375 86.83296875 84.18625 87.6484375 84.25 C94.64292725 84.9379826 100.86067698 86.84023823 105.625 92.25 C111.21073216 100.30002576 110.81825974 109.831167 109.75 119.3125 C108.04430681 124.91591358 104.89454971 129.40471103 99.75 132.3125 C92.24620295 135.08101277 84.69501631 135.91039621 76.75 136.3125 C75.10409858 141.15338654 74.43051303 144.35517513 75.75 149.3125 C77.72027096 152.45244287 77.72027096 152.45244287 80.1875 155.4375 C84.67754391 161.1023066 87.3315967 164.6552067 87.1171875 171.95703125 C85.88566702 179.85710409 78.37652724 187.11096497 72.75 192.3125 C66.78976108 195.88069637 61.55576773 196.49025956 54.75 195.3125 C49.81954109 193.03388154 45.68091745 189.86118806 41.4609375 186.4765625 C37.71233977 183.22882859 37.71233977 183.22882859 33.0625 182.3125 C32.299375 182.6425 31.53625 182.9725 30.75 183.3125 C29.48929687 183.55613281 29.48929687 183.55613281 28.203125 183.8046875 C25.63318828 185.02569606 25.63318828 185.02569606 25.12963867 187.12597656 C24.71585096 189.56076563 24.42699646 191.97941235 24.1875 194.4375 C23.49926937 201.00373001 22.55341592 206.7577937 18.75 212.3125 C12.32019812 217.43009741 6.95090513 217.60077381 -0.9375 217.75 C-1.90623047 217.79576172 -2.87496094 217.84152344 -3.87304688 217.88867188 C-10.14302298 217.98617657 -13.76640523 217.04688344 -18.60473633 213.00024414 C-24.89440833 206.54817372 -26.4375 197.84311636 -26.4375 189 C-26.375625 187.783125 -26.31375 186.56625 -26.25 185.3125 C-26.9925 185.18875 -27.735 185.065 -28.5 184.9375 C-31.25 184.3125 -31.25 184.3125 -33.3125 183.1875 C-35.79407346 182.0667894 -36.70198089 182.46584431 -39.25 183.3125 C-41.64088801 184.91112441 -43.94801947 186.53314632 -46.25 188.25 C-56.57667007 195.88698299 -56.57667007 195.88698299 -63.88671875 195.68359375 C-71.46711118 194.49328419 -77.47606689 187.90149486 -82.25 182.3125 C-86.15678926 176.54801555 -88.52780045 171.37182382 -87.25 164.3125 C-84.89449813 159.50618694 -81.8835678 155.16365368 -78.34375 151.15234375 C-76.66004792 149.22756615 -75.30038338 147.64719494 -74.25 145.3125 C-74.62885489 141.75578771 -75.6511483 137.9113517 -78.25 135.3125 C-79.59041295 135.06499058 -80.9406253 134.8699085 -82.29296875 134.69921875 C-83.53336914 134.5280957 -83.53336914 134.5280957 -84.79882812 134.35351562 C-86.53723651 134.12061265 -88.27683925 133.89643278 -90.01757812 133.68164062 C-96.02492949 132.83141224 -100.7465951 131.50176925 -104.67578125 126.49609375 C-107.88748263 120.17173024 -108.51450135 115.58139234 -108.625 108.625 C-108.66238281 107.75166016 -108.69976562 106.87832031 -108.73828125 105.97851562 C-108.82548804 99.49129906 -107.38039776 95.33853712 -103.25 90.3125 C-98.31855606 85.74189342 -94.78609264 84.22069931 -88.05419922 83.83251953 C-81.12456028 83.60963128 -81.12456028 83.60963128 -75.2109375 80.546875 C-73.75879424 77.72616508 -73.15239326 75.63437411 -73.38671875 72.4609375 C-74.71620155 69.1522699 -76.96614243 66.56037851 -79.1875 63.8125 C-84.03083355 57.77032151 -86.88013754 53.845812 -86.68359375 45.9609375 C-85.30973516 37.56926072 -77.42347003 30.62168423 -71.25 25.3125 C-66.3967814 22.18619354 -60.80446168 22.73942062 -55.25 23.3125 C-51.40148815 24.93292604 -48.84507948 26.8521555 -45.55859375 29.39453125 C-44.59050781 30.13058594 -43.62242187 30.86664063 -42.625 31.625 C-41.72523438 32.34300781 -40.82546875 33.06101563 -39.8984375 33.80078125 C-37.40155949 35.53286997 -37.40155949 35.53286997 -34.7890625 35.23046875 C-33.95117188 34.92753906 -33.11328125 34.62460938 -32.25 34.3125 C-31.18007812 33.95542969 -30.11015625 33.59835938 -29.0078125 33.23046875 C-25.89104047 31.51089593 -25.89104047 31.51089593 -25.3671875 27.80078125 C-25.26396343 26.41034139 -25.18427346 25.01800569 -25.125 23.625 C-24.4041442 15.18391998 -23.09059399 9.67250242 -16.75 3.875 C-11.74571092 -0.29903203 -6.23638251 0.07206914 0 0 Z " fill="#FCD57F" transform="translate(260.25,100.6875)"/>
<path d="M0 0 C0.92425781 -0.01546875 1.84851563 -0.0309375 2.80078125 -0.046875 C10.08776762 -0.00517551 13.32587599 1.59794376 18.6875 6.5 C21.50149894 11.15765342 22.32495559 16.22968247 23.5 21.5 C24.13151267 23.8456185 24.81167824 26.17029557 25.5 28.5 C29.87245431 29.6014157 31.79588312 29.90056055 35.7890625 27.62890625 C36.90816035 26.78277125 38.01992873 25.92687373 39.125 25.0625 C44.97336309 20.90438331 49.38014065 19.34915406 56.734375 19.953125 C64.21318312 21.43198536 69.6088442 27.94364701 74.5 33.5 C77.61537204 38.39558463 77.40496255 43.92274932 76.5 49.5 C74.58062853 53.50913101 72.17941377 56.96584112 69.5 60.5 C66.93312633 64.3503105 67.66711276 66.08569763 68.5 70.5 C70.11068359 70.86351563 70.11068359 70.86351563 71.75390625 71.234375 C73.1902409 71.57233609 74.62643129 71.91091065 76.0625 72.25 C76.76697266 72.40726562 77.47144531 72.56453125 78.19726562 72.7265625 C84.23530138 74.17346508 90.66463279 76.36585177 94.4375 81.625 C96.99438546 86.08056279 96.9641954 90.61336442 97 95.625 C97.00636475 96.40117676 97.01272949 97.17735352 97.01928711 97.97705078 C96.87983583 104.27054784 95.29219221 108.25575215 91.31640625 113.234375 C87.79427128 116.06771519 84.79597443 116.85513449 80.4375 117.75 C79.73044922 117.90984375 79.02339844 118.0696875 78.29492188 118.234375 C75.56414078 118.84976229 72.82699285 119.43227333 70.0859375 120 C68.31857676 120.38790506 68.31857676 120.38790506 67.1875 122.25 C66.2908744 125.18441104 66.61912643 126.54574948 67.5 129.5 C68.56891806 131.15490339 69.64394468 132.80752517 70.79077148 134.40942383 C74.60285823 139.73931973 77.91101953 144.36870132 77.18359375 151.1953125 C74.71006784 159.53462842 67.90556536 166.25446786 60.57421875 170.65625 C56.28303062 172.40181805 52.01466016 172.28160783 47.5 171.5 C42.71173592 169.186291 38.48908258 166.19735047 34.44921875 162.75 C32.05380383 161.21386218 31.00751627 161.30695535 28.25 161.8125 C27.0125 162.039375 25.775 162.26625 24.5 162.5 C24.40203125 163.49 24.3040625 164.48 24.203125 165.5 C22.33924359 182.67511257 22.33924359 182.67511257 14.875 189 C10.20270603 191.84535706 5.77421167 192.06833081 0.4375 192.125 C-0.31805176 192.13595703 -1.07360352 192.14691406 -1.85205078 192.15820312 C-8.95602002 191.9790206 -14.2848103 189.7151897 -19.3125 184.6875 C-22.39024994 179.98338053 -22.89065086 174.27783468 -23.7265625 168.828125 C-24.60060768 164.91940255 -24.60060768 164.91940255 -27.5 162.5 C-29.78073111 161.36801502 -29.78073111 161.36801502 -32.5 161.5 C-34.91391147 162.87353316 -36.94365771 164.20164153 -39.125 165.875 C-45.65670287 170.72964402 -50.32252816 172.39721478 -58.5 171.5 C-65.47564385 168.08056674 -72.87336152 161.00034341 -75.5 153.5 C-76.67197861 148.44198705 -76.24949911 144.89047346 -73.7734375 140.296875 C-71.77224397 137.2841691 -69.68432214 134.38172619 -67.5 131.5 C-65.33382585 128.25073878 -65.28664331 127.9014758 -65.875 124.3125 C-66.184375 122.4253125 -66.184375 122.4253125 -66.5 120.5 C-67.551875 120.42652344 -67.551875 120.42652344 -68.625 120.3515625 C-78.30775518 119.58851929 -86.87953346 118.83130754 -93.6328125 111.0390625 C-96.48779373 106.5913593 -96.15931189 101.75119589 -96.125 96.625 C-96.15722656 95.66980469 -96.18945312 94.71460937 -96.22265625 93.73046875 C-96.23114903 87.53923353 -95.17734098 83.76869523 -91.10009766 79.04589844 C-84.85990523 73.01707658 -75.73115524 72.78285757 -67.5 72.5 C-66.47259845 68.99474765 -66.03548348 67.07580944 -66.5 63.5 C-67.90819247 61.10664061 -69.32009738 58.92655528 -70.9375 56.6875 C-74.89466491 51.12033428 -76.68001531 47.09131009 -76.046875 40.04296875 C-74.43733761 32.55861987 -66.9202759 25.35700759 -60.578125 21.2578125 C-55.52973751 19.41685917 -49.27607563 19.63393931 -44.18359375 21.22265625 C-40.17347863 23.16100935 -36.76173694 25.69674728 -33.43359375 28.64453125 C-30.36925947 30.00026702 -27.70292483 29.12078091 -24.5 28.5 C-24.26216797 26.90671875 -24.26216797 26.90671875 -24.01953125 25.28125 C-22.54853988 16.11058898 -21.29678281 8.64776243 -13.98828125 2.328125 C-9.23105188 -0.16502544 -5.28875145 -0.08851467 0 0 Z " fill="#FB7BAD" transform="translate(95.5,-0.5)"/>
<path d="M0 0 C0.82113281 -0.02900391 1.64226562 -0.05800781 2.48828125 -0.08789062 C9.55424222 -0.16067786 14.8827731 1.60025834 20.0625 6.5 C24.82417863 14.43613105 25.65538167 23.25936254 26.75 32.3125 C27.99420647 32.8470256 29.24570936 33.36458611 30.5 33.875 C31.19609375 34.16503906 31.8921875 34.45507812 32.609375 34.75390625 C35.14320207 35.41510565 36.28069631 35.11623642 38.75 34.3125 C40.47312104 33.31621669 40.47312104 33.31621669 42.09765625 32.0625 C42.70287109 31.6190625 43.30808594 31.175625 43.93164062 30.71875 C44.55232422 30.2546875 45.17300781 29.790625 45.8125 29.3125 C52.67080548 24.21654546 57.22239114 22.62247974 65.75 23.3125 C74.77907042 25.91409656 80.78787394 33.65284232 85.75 41.3125 C87.49926653 46.56029958 87.89255242 50.98446688 85.3984375 56.06640625 C82.59636678 60.50404689 79.52686705 64.58382602 76.1875 68.625 C74.69754644 70.4509986 74.69754644 70.4509986 73.75 72.3125 C74.15847192 75.53806523 74.15847192 75.53806523 75.75 78.3125 C76.11588815 79.97232371 76.45462173 81.63868981 76.75 83.3125 C77.9565625 83.41046875 79.163125 83.5084375 80.40625 83.609375 C82.02091175 83.75957609 83.63549105 83.9106653 85.25 84.0625 C86.04148437 84.124375 86.83296875 84.18625 87.6484375 84.25 C94.64292725 84.9379826 100.86067698 86.84023823 105.625 92.25 C111.21073216 100.30002576 110.81825974 109.831167 109.75 119.3125 C108.04430681 124.91591358 104.89454971 129.40471103 99.75 132.3125 C92.24620295 135.08101277 84.69501631 135.91039621 76.75 136.3125 C75.10409858 141.15338654 74.43051303 144.35517513 75.75 149.3125 C77.72027096 152.45244287 77.72027096 152.45244287 80.1875 155.4375 C84.67754391 161.1023066 87.3315967 164.6552067 87.1171875 171.95703125 C85.88566702 179.85710409 78.37652724 187.11096497 72.75 192.3125 C66.78976108 195.88069637 61.55576773 196.49025956 54.75 195.3125 C49.81954109 193.03388154 45.68091745 189.86118806 41.4609375 186.4765625 C37.71233977 183.22882859 37.71233977 183.22882859 33.0625 182.3125 C32.299375 182.6425 31.53625 182.9725 30.75 183.3125 C29.48929687 183.55613281 29.48929687 183.55613281 28.203125 183.8046875 C25.63318828 185.02569606 25.63318828 185.02569606 25.12963867 187.12597656 C24.71585096 189.56076563 24.42699646 191.97941235 24.1875 194.4375 C23.49926937 201.00373001 22.55341592 206.7577937 18.75 212.3125 C12.32019812 217.43009741 6.95090513 217.60077381 -0.9375 217.75 C-1.90623047 217.79576172 -2.87496094 217.84152344 -3.87304688 217.88867188 C-10.14302298 217.98617657 -13.76640523 217.04688344 -18.60473633 213.00024414 C-24.89440833 206.54817372 -26.4375 197.84311636 -26.4375 189 C-26.375625 187.783125 -26.31375 186.56625 -26.25 185.3125 C-26.9925 185.18875 -27.735 185.065 -28.5 184.9375 C-31.25 184.3125 -31.25 184.3125 -33.3125 183.1875 C-35.79407346 182.0667894 -36.70198089 182.46584431 -39.25 183.3125 C-41.64088801 184.91112441 -43.94801947 186.53314632 -46.25 188.25 C-56.57667007 195.88698299 -56.57667007 195.88698299 -63.88671875 195.68359375 C-71.46711118 194.49328419 -77.47606689 187.90149486 -82.25 182.3125 C-86.15678926 176.54801555 -88.52780045 171.37182382 -87.25 164.3125 C-84.89449813 159.50618694 -81.8835678 155.16365368 -78.34375 151.15234375 C-76.66004792 149.22756615 -75.30038338 147.64719494 -74.25 145.3125 C-74.62885489 141.75578771 -75.6511483 137.9113517 -78.25 135.3125 C-79.59041295 135.06499058 -80.9406253 134.8699085 -82.29296875 134.69921875 C-83.53336914 134.5280957 -83.53336914 134.5280957 -84.79882812 134.35351562 C-86.53723651 134.12061265 -88.27683925 133.89643278 -90.01757812 133.68164062 C-96.02492949 132.83141224 -100.7465951 131.50176925 -104.67578125 126.49609375 C-107.88748263 120.17173024 -108.51450135 115.58139234 -108.625 108.625 C-108.66238281 107.75166016 -108.69976562 106.87832031 -108.73828125 105.97851562 C-108.82548804 99.49129906 -107.38039776 95.33853712 -103.25 90.3125 C-98.31855606 85.74189342 -94.78609264 84.22069931 -88.05419922 83.83251953 C-81.12456028 83.60963128 -81.12456028 83.60963128 -75.2109375 80.546875 C-73.75879424 77.72616508 -73.15239326 75.63437411 -73.38671875 72.4609375 C-74.71620155 69.1522699 -76.96614243 66.56037851 -79.1875 63.8125 C-84.03083355 57.77032151 -86.88013754 53.845812 -86.68359375 45.9609375 C-85.30973516 37.56926072 -77.42347003 30.62168423 -71.25 25.3125 C-66.3967814 22.18619354 -60.80446168 22.73942062 -55.25 23.3125 C-51.40148815 24.93292604 -48.84507948 26.8521555 -45.55859375 29.39453125 C-44.59050781 30.13058594 -43.62242187 30.86664063 -42.625 31.625 C-41.72523438 32.34300781 -40.82546875 33.06101563 -39.8984375 33.80078125 C-37.40155949 35.53286997 -37.40155949 35.53286997 -34.7890625 35.23046875 C-33.95117188 34.92753906 -33.11328125 34.62460938 -32.25 34.3125 C-31.18007812 33.95542969 -30.11015625 33.59835938 -29.0078125 33.23046875 C-25.89104047 31.51089593 -25.89104047 31.51089593 -25.3671875 27.80078125 C-25.26396343 26.41034139 -25.18427346 25.01800569 -25.125 23.625 C-24.4041442 15.18391998 -23.09059399 9.67250242 -16.75 3.875 C-11.74571092 -0.29903203 -6.23638251 0.07206914 0 0 Z M-7.25 19.3125 C-7.57749974 21.45315739 -7.86123645 23.60055846 -8.125 25.75 C-10.43200139 42.06498105 -10.43200139 42.06498105 -15.25 46.6875 C-21.67909677 51.46185034 -29.21216427 53.79991133 -37.1796875 53.6484375 C-43.57301793 52.61102917 -47.73624234 48.72311932 -52.52148438 44.68164062 C-55.604297 42.08758021 -55.604297 42.08758021 -59.41796875 41.2578125 C-61.80246723 42.63055149 -63.25054045 44.25546247 -65 46.375 C-65.61359375 47.10847656 -66.2271875 47.84195313 -66.859375 48.59765625 C-67.31828125 49.16355469 -67.7771875 49.72945312 -68.25 50.3125 C-65.27379818 55.89287841 -61.72909257 60.88329385 -57.95703125 65.95703125 C-54.56221274 70.64141468 -54.36252659 74.64132845 -55.25 80.3125 C-58.31054705 88.33027113 -61.54689231 95.41178144 -69.515625 99.46484375 C-73.29197502 100.63551226 -77.10058018 101.25359161 -81 101.875 C-86.02938451 102.2700312 -86.02938451 102.2700312 -90.25 104.3125 C-90.3489294 106.47730797 -90.379711 108.64543785 -90.375 110.8125 C-90.37757813 111.9984375 -90.38015625 113.184375 -90.3828125 114.40625 C-90.58210219 117.20509422 -90.58210219 117.20509422 -89.25 118.3125 C-87.37630242 118.50684067 -85.50184654 118.69575895 -83.62475586 118.85400391 C-67.46876597 120.3107894 -67.46876597 120.3107894 -62.25 125.3125 C-57.83652257 131.47498848 -52.70702567 140.3564809 -53.52734375 148.171875 C-55.18513857 153.08253208 -58.2068853 157.1699766 -61.25 161.3125 C-61.84425781 162.12976563 -62.43851563 162.94703125 -63.05078125 163.7890625 C-64.42792378 165.64935527 -65.82401271 167.48953457 -67.25 169.3125 C-65.92080708 172.28060069 -64.47137857 174.31813789 -62.125 176.5625 C-61.17625 177.47 -60.2275 178.3775 -59.25 179.3125 C-55.50476437 177.65595347 -52.48515734 175.30357115 -49.25 172.8125 C-40.21423673 165.85496229 -40.21423673 165.85496229 -35.1875 166.4375 C-27.24702236 167.56622905 -19.28673023 169.74948788 -14.25 176.3125 C-10.31244641 181.71257349 -9.48210593 186.63555428 -8.64453125 193.2265625 C-8.29509259 195.95979559 -7.82568755 198.61928345 -7.25 201.3125 C-5.10423363 201.33935938 -2.95837355 201.35883088 -0.8125 201.375 C0.97994141 201.39240234 0.97994141 201.39240234 2.80859375 201.41015625 C5.63873341 201.65151792 5.63873341 201.65151792 6.75 200.3125 C6.98612598 198.91026925 7.16922364 197.499004 7.328125 196.0859375 C7.49248047 194.78462891 7.49248047 194.78462891 7.66015625 193.45703125 C7.88365898 191.63561248 8.0949551 189.812647 8.29296875 187.98828125 C9.08134196 181.97361371 10.44216545 177.69766632 14.75 173.3125 C21.62871621 168.07401419 28.93913677 166.33155252 37.48828125 166.7265625 C42.63167003 167.65052456 45.83373604 169.98779408 49.75 173.3125 C51.26611386 174.44385219 52.78676333 175.56915898 54.3125 176.6875 C55.46021429 177.56003133 56.60679443 178.43406956 57.75 179.3125 C60.96043882 177.93061547 62.79936365 176.38828097 65 173.6875 C65.52078125 173.05585938 66.0415625 172.42421875 66.578125 171.7734375 C67.15820312 171.05027344 67.15820312 171.05027344 67.75 170.3125 C66.24126044 166.09434856 64.08551126 162.44538526 61.6875 158.6875 C57.53145093 152.15551491 55.51489601 147.11474227 56.75 139.3125 C59.41691329 132.33345086 62.2399592 125.45786421 68.75 121.3125 C71.80078125 120.30078125 71.80078125 120.30078125 75.0625 119.625 C76.19816406 119.38652344 77.33382812 119.14804688 78.50390625 118.90234375 C82.24630859 118.22231637 85.97289112 117.74832026 89.75 117.3125 C91.08901792 116.20123341 91.08901792 116.20123341 90.84765625 113.37109375 C90.83605469 112.17613281 90.82445312 110.98117188 90.8125 109.75 C90.80347656 108.55246094 90.79445313 107.35492188 90.78515625 106.12109375 C90.77355469 105.19425781 90.76195312 104.26742187 90.75 103.3125 C86.49880034 100.65412708 81.7232933 100.65199301 76.85742188 100.27734375 C71.57704581 99.74780746 68.15617676 98.3087002 63.75 95.3125 C62.05731755 92.89438221 60.92564763 90.95644575 59.75 88.3125 C59.37746094 87.53390625 59.00492188 86.7553125 58.62109375 85.953125 C56.17995193 80.47544092 54.26481371 75.29285014 55.75 69.3125 C58.40463066 64.00323868 61.75537969 59.31470367 65.75 54.9375 C67.96209157 52.52861464 67.96209157 52.52861464 67.9375 49.8125 C66.29168731 46.34763118 64.03991962 43.36195812 60.75 41.3125 C57.76596169 41.77667518 55.77916813 42.78532511 53.3671875 44.5625 C52.75746094 45.0059375 52.14773438 45.449375 51.51953125 45.90625 C50.89433594 46.3703125 50.26914062 46.834375 49.625 47.3125 C42.28484789 52.69428159 38.01650667 54.43733607 28.75 53.3125 C21.6612474 50.87653151 15.81964262 47.68827343 11.75 41.3125 C9.68801744 37.05055835 9.17199864 32.78039999 8.6875 28.125 C8.30597606 23.06572698 8.30597606 23.06572698 6.75 18.3125 C4.60423363 18.28564062 2.45837355 18.26616912 0.3125 18.25 C-1.47994141 18.23259766 -1.47994141 18.23259766 -3.30859375 18.21484375 C-6.13873341 17.97348208 -6.13873341 17.97348208 -7.25 19.3125 Z " fill="#2C3E66" transform="translate(260.25,100.6875)"/>
<path d="M0 0 C0.33 0 0.66 0 1 0 C1 62.37 1 124.74 1 189 C-45.86 189 -92.72 189 -141 189 C-136.98703176 182.98054765 -132.97649666 177.26446413 -128.5 171.625 C-122.99650064 164.62234215 -117.65750258 157.51942315 -112.40136719 150.32983398 C-107.92681005 144.22312292 -103.35504148 138.19626056 -98.75 132.1875 C-93.93296195 125.89873171 -89.20556695 119.57105366 -84.64648438 113.09326172 C-80.93207117 107.84147699 -77.01561386 102.75333211 -73.09033203 97.65820312 C-69.05235633 92.40566629 -65.10199707 87.09504969 -61.1875 81.75 C-56.19894404 74.94203086 -51.13001483 68.20198694 -46 61.5 C-40.3508977 54.11942653 -34.79350278 46.6801988 -29.30224609 39.18164062 C-24.14720663 32.15964092 -18.86872175 25.23508397 -13.57202148 18.31958008 C-9.3772234 12.83527191 -5.26554922 7.31050384 -1.28515625 1.66796875 C-0.86105469 1.11753906 -0.43695313 0.56710938 0 0 Z " fill="#E2EBFE" transform="translate(495,149)"/>
<path d="M0 0 C0.92425781 -0.01546875 1.84851563 -0.0309375 2.80078125 -0.046875 C10.08776762 -0.00517551 13.32587599 1.59794376 18.6875 6.5 C21.50149894 11.15765342 22.32495559 16.22968247 23.5 21.5 C24.13151267 23.8456185 24.81167824 26.17029557 25.5 28.5 C29.87245431 29.6014157 31.79588312 29.90056055 35.7890625 27.62890625 C36.90816035 26.78277125 38.01992873 25.92687373 39.125 25.0625 C44.97336309 20.90438331 49.38014065 19.34915406 56.734375 19.953125 C64.21318312 21.43198536 69.6088442 27.94364701 74.5 33.5 C77.61537204 38.39558463 77.40496255 43.92274932 76.5 49.5 C74.58062853 53.50913101 72.17941377 56.96584112 69.5 60.5 C66.93312633 64.3503105 67.66711276 66.08569763 68.5 70.5 C70.11068359 70.86351563 70.11068359 70.86351563 71.75390625 71.234375 C73.1902409 71.57233609 74.62643129 71.91091065 76.0625 72.25 C76.76697266 72.40726562 77.47144531 72.56453125 78.19726562 72.7265625 C84.23530138 74.17346508 90.66463279 76.36585177 94.4375 81.625 C96.99438546 86.08056279 96.9641954 90.61336442 97 95.625 C97.00636475 96.40117676 97.01272949 97.17735352 97.01928711 97.97705078 C96.87983583 104.27054784 95.29219221 108.25575215 91.31640625 113.234375 C87.79427128 116.06771519 84.79597443 116.85513449 80.4375 117.75 C79.73044922 117.90984375 79.02339844 118.0696875 78.29492188 118.234375 C75.56414078 118.84976229 72.82699285 119.43227333 70.0859375 120 C68.31857676 120.38790506 68.31857676 120.38790506 67.1875 122.25 C66.2908744 125.18441104 66.61912643 126.54574948 67.5 129.5 C68.56891806 131.15490339 69.64394468 132.80752517 70.79077148 134.40942383 C74.60285823 139.73931973 77.91101953 144.36870132 77.18359375 151.1953125 C74.71006784 159.53462842 67.90556536 166.25446786 60.57421875 170.65625 C56.28303062 172.40181805 52.01466016 172.28160783 47.5 171.5 C42.71173592 169.186291 38.48908258 166.19735047 34.44921875 162.75 C32.05380383 161.21386218 31.00751627 161.30695535 28.25 161.8125 C27.0125 162.039375 25.775 162.26625 24.5 162.5 C24.40203125 163.49 24.3040625 164.48 24.203125 165.5 C22.33924359 182.67511257 22.33924359 182.67511257 14.875 189 C10.20270603 191.84535706 5.77421167 192.06833081 0.4375 192.125 C-0.31805176 192.13595703 -1.07360352 192.14691406 -1.85205078 192.15820312 C-8.95602002 191.9790206 -14.2848103 189.7151897 -19.3125 184.6875 C-22.39024994 179.98338053 -22.89065086 174.27783468 -23.7265625 168.828125 C-24.60060768 164.91940255 -24.60060768 164.91940255 -27.5 162.5 C-29.78073111 161.36801502 -29.78073111 161.36801502 -32.5 161.5 C-34.91391147 162.87353316 -36.94365771 164.20164153 -39.125 165.875 C-45.65670287 170.72964402 -50.32252816 172.39721478 -58.5 171.5 C-65.47564385 168.08056674 -72.87336152 161.00034341 -75.5 153.5 C-76.67197861 148.44198705 -76.24949911 144.89047346 -73.7734375 140.296875 C-71.77224397 137.2841691 -69.68432214 134.38172619 -67.5 131.5 C-65.33382585 128.25073878 -65.28664331 127.9014758 -65.875 124.3125 C-66.184375 122.4253125 -66.184375 122.4253125 -66.5 120.5 C-67.551875 120.42652344 -67.551875 120.42652344 -68.625 120.3515625 C-78.30775518 119.58851929 -86.87953346 118.83130754 -93.6328125 111.0390625 C-96.48779373 106.5913593 -96.15931189 101.75119589 -96.125 96.625 C-96.15722656 95.66980469 -96.18945312 94.71460937 -96.22265625 93.73046875 C-96.23114903 87.53923353 -95.17734098 83.76869523 -91.10009766 79.04589844 C-84.85990523 73.01707658 -75.73115524 72.78285757 -67.5 72.5 C-66.47259845 68.99474765 -66.03548348 67.07580944 -66.5 63.5 C-67.90819247 61.10664061 -69.32009738 58.92655528 -70.9375 56.6875 C-74.89466491 51.12033428 -76.68001531 47.09131009 -76.046875 40.04296875 C-74.43733761 32.55861987 -66.9202759 25.35700759 -60.578125 21.2578125 C-55.52973751 19.41685917 -49.27607563 19.63393931 -44.18359375 21.22265625 C-40.17347863 23.16100935 -36.76173694 25.69674728 -33.43359375 28.64453125 C-30.36925947 30.00026702 -27.70292483 29.12078091 -24.5 28.5 C-24.26216797 26.90671875 -24.26216797 26.90671875 -24.01953125 25.28125 C-22.54853988 16.11058898 -21.29678281 8.64776243 -13.98828125 2.328125 C-9.23105188 -0.16502544 -5.28875145 -0.08851467 0 0 Z M-6.5 16.5 C-6.86351563 18.57861328 -6.86351563 18.57861328 -7.234375 20.69921875 C-7.57214182 22.52878905 -7.91072656 24.35820849 -8.25 26.1875 C-8.40726562 27.09951172 -8.56453125 28.01152344 -8.7265625 28.95117188 C-9.69868959 34.09222861 -10.5428926 37.79910819 -14.5 41.5 C-20.46074352 45.47056106 -27.12178659 47.57517127 -34.28515625 47.33984375 C-40.98752953 45.58891999 -46.2476551 40.85105495 -51.5 36.5 C-54.82759923 38.05194754 -56.98580485 39.80621949 -59.5 42.5 C-58.1243563 46.35041981 -56.33312893 49.3816321 -53.9375 52.6875 C-49.45400418 58.90473849 -48.80359718 62.80972318 -49.5 70.5 C-50.91699832 76.48383024 -53.30139106 81.52771932 -58.2421875 85.32421875 C-62.06488592 87.31493194 -66.10443549 88.07057855 -70.31640625 88.859375 C-73.49512843 89.49901971 -76.4472529 90.41661907 -79.5 91.5 C-79.5 94.8 -79.5 98.1 -79.5 101.5 C-74.2733052 103.33683241 -69.03924661 104.50427779 -63.62109375 105.62109375 C-59.13709462 106.88379688 -56.41282216 108.17721568 -53.734375 112.05859375 C-52.99960937 113.48365234 -52.99960937 113.48365234 -52.25 114.9375 C-51.74984375 115.88496094 -51.2496875 116.83242187 -50.734375 117.80859375 C-48.11827287 123.51268985 -47.36131238 129.41884526 -49.5625 135.375 C-52.35697065 139.88221073 -55.39821249 144.19998773 -58.5 148.5 C-57.14062915 151.3605891 -55.85479531 153.35927699 -53.5 155.5 C-49.35747736 154.06634007 -46.31548625 151.98470137 -42.8125 149.375 C-38.11936429 146.23478221 -34.77752671 144.32848708 -29.08203125 144.84375 C-21.15604835 146.85822069 -13.89345075 150.47047881 -9.5 157.5 C-7.28631847 162.39340129 -6.75029043 167.71085849 -5.96484375 172.98828125 C-5.75814246 175.43073107 -5.75814246 175.43073107 -4.5 176.5 C-2.81391034 176.57205511 -1.12499341 176.58386068 0.5625 176.5625 C1.48160156 176.55347656 2.40070313 176.54445312 3.34765625 176.53515625 C4.05792969 176.52355469 4.76820312 176.51195312 5.5 176.5 C5.67015625 175.35402344 5.8403125 174.20804688 6.015625 173.02734375 C6.25968443 171.49727886 6.50451744 169.96733721 6.75 168.4375 C6.85957031 167.68533203 6.96914062 166.93316406 7.08203125 166.15820312 C8.0412777 160.32699442 9.57938238 155.04053725 14.2109375 151.01171875 C21.77306306 147.26615891 28.03485333 145.50992437 36.5 146.5 C39.18922543 147.43170015 41.24001639 148.78946195 43.5 150.5 C44.22703125 151.02851563 44.9540625 151.55703125 45.703125 152.1015625 C47.65643264 153.54263911 49.58538845 155.0080949 51.5 156.5 C54.82759923 154.94805246 56.98580485 153.19378051 59.5 150.5 C58.1243563 146.64958019 56.33312893 143.6183679 53.9375 140.3125 C49.71169075 134.45259403 48.48132058 130.78598328 49.5 123.5 C52.01616235 116.47389959 55.09275385 110.50452884 61.5 106.5 C66.18044897 104.43189464 71.18351513 103.785148 76.20703125 102.96484375 C78.45527726 102.72889565 78.45527726 102.72889565 79.5 101.5 C79.59823937 99.83570949 79.62973631 98.16718069 79.625 96.5 C79.62757813 95.5925 79.63015625 94.685 79.6328125 93.75 C79.75173779 91.53033389 79.75173779 91.53033389 78.5 90.5 C74.79755988 89.90624811 71.0949886 89.35513885 67.37695312 88.86914062 C60.85223319 87.89283339 56.49020706 85.98775882 52.25 80.6875 C48.4766443 73.81460211 46.90908926 66.24181564 48.5 58.5 C50.12335793 55.40252834 52.16892231 52.6494307 54.38598633 49.95263672 C56.97428811 46.7538314 56.97428811 46.7538314 57.40625 42.765625 C56.29066194 39.97665485 54.74743204 38.45744081 52.5 36.5 C48.65628436 37.87078748 45.66166017 39.65529782 42.375 42.0625 C36.47548991 46.37505981 31.74509851 47.50572122 24.5 46.5 C17.61337638 44.18452233 11.73565624 41.26892175 8.3203125 34.640625 C6.92036852 30.98743784 6.09285947 27.36048026 5.5 23.5 C5.38914062 22.79875 5.27828125 22.0975 5.1640625 21.375 C4.92206253 19.75294615 4.70767717 18.12680449 4.5 16.5 C0.87 16.5 -2.76 16.5 -6.5 16.5 Z " fill="#2C3D66" transform="translate(95.5,-0.5)"/>
<path d="M0 0 C44.22 0 88.44 0 134 0 C134 5.61 134 11.22 134 17 C135.65 17.66 137.3 18.32 139 19 C141.39629455 22.59444183 141.25781331 25.14861652 141.1953125 29.29296875 C141.1924826 29.99899734 141.18965271 30.70502594 141.18673706 31.43244934 C141.17555464 33.68430633 141.1504542 35.93576352 141.125 38.1875 C141.11496767 39.71548904 141.10584226 41.24348433 141.09765625 42.77148438 C141.07562172 46.51447663 141.04110567 50.25717056 141 54 C142.46808105 53.97643433 142.46808105 53.97643433 143.96582031 53.95239258 C147.60359438 53.8980143 151.24133264 53.86362152 154.87939453 53.83520508 C156.45269822 53.82013636 158.02596002 53.79967755 159.59912109 53.77368164 C161.86306096 53.73721262 164.12644457 53.72025492 166.390625 53.70703125 C167.09181458 53.69154739 167.79300415 53.67606354 168.51544189 53.66011047 C171.57592673 53.65906035 173.70286557 53.83927728 176.41699219 55.30737305 C178.94388171 58.00924304 178.93767885 60.38537351 179 64 C177.65437601 66.94755732 176.91445456 68.54277272 174 70 C171.21262257 70.10241396 168.44997342 70.14337307 165.66213989 70.14044189 C164.7893731 70.14341302 163.91660631 70.14638414 163.01739204 70.1494453 C160.07554998 70.15815799 157.13374849 70.1596427 154.19189453 70.16113281 C152.08974113 70.16575914 149.98758858 70.17078354 147.88543701 70.17617798 C142.16232921 70.18932112 136.43923315 70.19575056 130.71611261 70.20018864 C127.14375684 70.20311603 123.57140429 70.20722018 119.99905014 70.21169281 C108.83124402 70.22537223 97.66344526 70.23503694 86.49563134 70.2388947 C73.58662947 70.24337794 60.67773336 70.26093634 47.76876366 70.2898953 C37.80186212 70.31148127 27.8349904 70.32159732 17.86806571 70.32293582 C11.90990825 70.32398598 5.95185013 70.32993865 -0.00628281 70.34775543 C-5.60899064 70.36418303 -11.21152387 70.36641752 -16.81424713 70.35761642 C-18.87342164 70.35684322 -20.93260534 70.36122587 -22.99175644 70.37107468 C-25.79743897 70.3837097 -28.60249519 70.37796356 -31.40817261 70.36749268 C-32.6376436 70.37957728 -32.6376436 70.37957728 -33.8919524 70.39190602 C-37.14992793 70.36336282 -39.57124877 70.2269754 -42.47839546 68.68796921 C-44.92890629 65.96953172 -44.93829758 63.57874045 -45 60 C-43.65437601 57.05244268 -42.91445456 55.45722728 -40 54 C-37.59161322 53.91360131 -35.21266119 53.88432236 -32.8046875 53.90234375 C-32.09724396 53.9037587 -31.38980042 53.90517365 -30.66091919 53.90663147 C-28.39890331 53.912234 -26.13698602 53.92478682 -23.875 53.9375 C-22.34244935 53.94251468 -20.80989714 53.94707764 -19.27734375 53.95117188 C-15.51819112 53.96220423 -11.75911228 53.97947048 -8 54 C-8.02618408 53.05680908 -8.05236816 52.11361816 -8.0793457 51.1418457 C-8.16476922 47.62866855 -8.22734298 44.11660092 -8.2746582 40.6027832 C-8.29974109 39.08470199 -8.3338166 37.56674082 -8.37719727 36.04907227 C-8.43813293 33.86184035 -8.46626895 31.67620961 -8.48828125 29.48828125 C-8.51446533 28.17384033 -8.54064941 26.85939941 -8.56762695 25.50512695 C-7.85907197 21.12976186 -6.4788859 19.66055016 -3 17 C-2.01 17 -1.02 17 0 17 C0 11.39 0 5.78 0 0 Z " fill="#C6D8F8" transform="translate(193,442)"/>
<path d="M0 0 C1.36112546 0.03591687 2.72174726 0.10046213 4.08032227 0.19116211 C4.77798706 0.21569458 5.47565186 0.24022705 6.19445801 0.26550293 C7.90881163 0.32932354 9.62185207 0.42685059 11.33422852 0.53100586 C11.43596215 7.93241588 11.50583421 15.33364439 11.55395508 22.7355957 C11.57402367 25.25161477 11.60128481 27.76758747 11.63598633 30.28344727 C11.68471163 33.90775014 11.70724573 37.53143427 11.72485352 41.15600586 C11.74549866 42.27402588 11.7661438 43.3920459 11.78741455 44.54394531 C11.78959581 52.20044999 10.7247753 57.50818928 5.65844727 63.51928711 C5.11833008 63.9562793 4.57821289 64.39327148 4.02172852 64.84350586 C3.4893457 65.29338867 2.95696289 65.74327148 2.40844727 66.20678711 C-3.1832453 69.77662473 -7.67527832 70.90607512 -14.30110931 70.90852928 C-15.41174275 70.91506977 -15.41174275 70.91506977 -16.54481322 70.92174238 C-19.02164048 70.93267587 -21.49790841 70.92228574 -23.97473145 70.91195679 C-25.77007504 70.9154141 -27.56541651 70.92017917 -29.36075354 70.92613852 C-34.29116619 70.93866797 -39.22140474 70.93246925 -44.15181804 70.92317986 C-49.47022735 70.91639771 -54.78860654 70.92686647 -60.10700989 70.93511963 C-70.52455962 70.94846804 -80.94204456 70.94557428 -91.35959685 70.93688171 C-99.82524182 70.93010994 -108.29086861 70.92918625 -116.7565155 70.93245316 C-117.96082815 70.93291285 -119.1651408 70.93337255 -120.40594777 70.93384618 C-122.85239192 70.93480535 -125.29883607 70.93577799 -127.74528021 70.93676396 C-150.69219786 70.9453211 -173.63907957 70.93547863 -196.58599132 70.91936286 C-216.28073422 70.90595939 -235.97542407 70.90828739 -255.67016602 70.92211914 C-278.53428919 70.93816922 -301.39838085 70.94449709 -324.26250887 70.93528235 C-326.70001506 70.93432669 -329.13752126 70.93338358 -331.57502747 70.93245316 C-333.37403457 70.93175892 -333.37403457 70.93175892 -335.20938525 70.93105065 C-343.66606168 70.92845905 -352.12271814 70.93283543 -360.57939148 70.93989182 C-370.88352427 70.94830065 -381.18758848 70.94603964 -391.4917134 70.93004958 C-396.75025957 70.9221586 -402.00869136 70.91908942 -407.26723671 70.92899704 C-412.07973706 70.93792721 -416.89201685 70.9330387 -421.70449716 70.91706438 C-423.44665983 70.91370948 -425.18884108 70.91542655 -426.93099183 70.92269175 C-429.29773791 70.93180558 -431.66372711 70.92246674 -434.03043365 70.90852928 C-435.34540785 70.90804222 -436.66038205 70.90755517 -438.01520395 70.90705335 C-445.82279876 70.1027876 -451.35507767 66.12876421 -456.66577148 60.53100586 C-459.44203848 56.27984702 -459.77645919 53.51887043 -459.66577148 48.53100586 C-431.58913427 48.54480279 -403.51266443 48.58698612 -375.43612385 48.66309643 C-362.40010514 48.69777059 -349.36419244 48.72310514 -336.328125 48.7265625 C-324.96777356 48.72959901 -313.60761081 48.75004738 -302.24733227 48.79153043 C-296.23039183 48.8128904 -290.21371983 48.82544553 -284.1967411 48.81715965 C-278.53561973 48.80963867 -272.87504315 48.82536323 -267.21402168 48.85906601 C-265.13432674 48.8673228 -263.05457786 48.86702171 -260.97488785 48.85760307 C-258.13835859 48.8460267 -255.3036284 48.86502967 -252.46723938 48.89176941 C-251.64135876 48.88109615 -250.81547813 48.87042289 -249.96457082 48.8594262 C-245.69304935 48.93472235 -244.16633881 49.11000422 -240.77583599 51.96158314 C-240.0795147 52.80949264 -239.38319342 53.65740213 -238.66577148 54.53100586 C-232.36157002 58.83631418 -226.16846062 59.27919647 -218.66577148 58.53100586 C-214.41568011 57.21447924 -211.45718424 55.63260334 -208.83668518 51.98503113 C-205.36772633 48.52798689 -201.40230883 48.91983495 -196.73661804 48.86766052 C-195.52979874 48.87942825 -194.32297943 48.89119598 -193.07958984 48.90332031 C-191.80091034 48.89604919 -190.52223083 48.88877808 -189.20480347 48.88128662 C-186.42728819 48.86573724 -183.65037652 48.86588441 -180.8728466 48.87829018 C-176.47091725 48.89787744 -172.06952104 48.88260334 -167.6676178 48.86283875 C-160.69445126 48.83569011 -153.7215024 48.83219546 -146.74829346 48.83861178 C-134.28977225 48.84953313 -121.83131926 48.82474509 -109.37286478 48.78486413 C-105.00819804 48.77187766 -100.64373154 48.77048442 -96.27905548 48.77899706 C-94.20924124 48.78176877 -92.1394841 48.78009369 -90.06967163 48.77661133 C-87.56098968 48.77269723 -85.05228128 48.77578638 -82.54362488 48.7877655 C-71.75383992 48.75011171 -61.68704171 47.43558131 -51.66577148 43.34350586 C-50.89668457 43.03380859 -50.12759766 42.72411133 -49.33520508 42.4050293 C-37.1854093 37.38646958 -27.88499543 30.75022981 -18.66577148 21.53100586 C-17.53461914 20.39985352 -17.53461914 20.39985352 -16.38061523 19.24584961 C-12.42721508 15.04869453 -10.03202297 11.20626789 -7.60327148 5.96850586 C-5.40443415 1.92762879 -4.66043747 0.67508834 0 0 Z " fill="#D4A5FE" transform="translate(484.665771484375,355.468994140625)"/>
<path d="M0 0 C9.80674578 7.29592775 16.95114448 16.25828345 20.125 28.25 C21.6276384 41.91091588 20.32518821 54.03694782 12.375 65.5625 C4.66906159 74.88039491 -5.52450971 82.79462308 -17.875 84.25 C-33.33800845 85.22186136 -43.01413877 81.97331447 -55.625 73.375 C-63.22688562 66.19544136 -69.78936991 55.42334954 -70.1484375 44.78515625 C-70.54779036 29.64036001 -68.46682966 18.70241582 -57.875 7.25 C-42.596163 -8.50630066 -18.90148775 -11.86611409 0 0 Z " fill="#2B3E65" transform="translate(284.875,170.75)"/>
<path d="M0 0 C8.43148752 6.34729959 14.64169242 15.35186122 16.6875 25.8125 C17.61988558 38.88382855 15.1600472 50.09735193 7.30078125 60.6796875 C-0.26129815 69.25131402 -11.32463189 73.10111225 -22.3828125 74.0859375 C-33.72263619 74.46296489 -43.59576358 71.19889477 -52.3125 63.828125 C-59.94580319 56.13518663 -64.60764935 47.48571222 -64.83227539 36.60693359 C-64.72820005 23.21590666 -62.35733996 13.90971857 -52.76953125 4.00390625 C-37.48162481 -9.63125355 -17.26407039 -11.1969084 0 0 Z " fill="#2D3D66" transform="translate(119.3125,62.1875)"/>
<path d="M0 0 C1.22244667 0.00333092 1.22244667 0.00333092 2.46958923 0.00672913 C3.39046829 0.00680466 4.31134735 0.00688019 5.26013184 0.00695801 C6.2611644 0.01211929 7.26219696 0.01728058 8.29356384 0.02259827 C9.31316696 0.02401321 10.33277008 0.02542816 11.38327026 0.02688599 C14.65417867 0.03250355 17.92501972 0.04505902 21.19590759 0.05775452 C23.40749515 0.06276725 25.61908377 0.06733055 27.83067322 0.07142639 C33.26494116 0.08247868 38.69916957 0.09923389 44.13340759 0.12025452 C41.86409036 4.19771115 39.60035584 8.03602615 36.73497009 11.72962952 C36.09801208 12.55672424 35.46105408 13.38381897 34.80479431 14.23597717 C34.12948669 15.1052887 33.45417908 15.97460022 32.75840759 16.87025452 C31.31448565 18.74692555 29.87180097 20.62454911 28.43028259 22.50306702 C27.3465033 23.91507385 27.3465033 23.91507385 26.24082947 25.35560608 C23.11797717 29.45235995 20.05654008 33.59273879 17.00840759 37.74525452 C16.43799744 38.52175354 15.86758728 39.29825256 15.27989197 40.09828186 C13.56297321 42.43789963 11.84784733 44.77881967 10.13340759 47.12025452 C2.23167615 57.91176202 -5.74909362 68.63139869 -13.8809967 79.25086975 C-19.09536294 86.07278198 -24.20967295 92.96347773 -29.26307678 99.90541077 C-32.33171372 104.10576991 -35.48762671 108.16454514 -38.86659241 112.12025452 C-41.81809975 111.49651549 -43.47563353 110.76402292 -46.17909241 109.18275452 C-51.34741713 106.48113023 -56.86694714 106.12723751 -62.57362366 105.51478577 C-65.86659241 105.12025452 -65.86659241 105.12025452 -68.86659241 104.12025452 C-70.10487366 102.22962952 -70.10487366 102.22962952 -71.17909241 99.87025452 C-71.73016663 98.71783264 -71.73016663 98.71783264 -72.29237366 97.54212952 C-73.06057763 94.30208554 -72.42551243 93.04322955 -70.86659241 90.12025452 C-69.48599895 88.08055651 -68.04308426 86.08222025 -66.55409241 84.12025452 C-65.79483459 83.10962952 -65.03557678 82.09900452 -64.25331116 81.05775452 C-61.94028572 78.21095398 -59.46191795 75.70741866 -56.86659241 73.12025452 C-55.35266429 71.27320804 -53.8756214 69.39554737 -52.42909241 67.49525452 C-52.00644104 66.94095764 -51.58378967 66.38666077 -51.14833069 65.81556702 C-46.85386998 60.15727292 -42.6628039 54.42229923 -38.46253967 48.69398499 C-33.34609562 41.73178288 -28.11435664 34.86200627 -22.86195374 28.00209045 C-17.53140904 21.02662129 -12.30233879 13.9807218 -7.11854553 6.89564514 C-6.57262756 6.14992249 -6.02670959 5.40419983 -5.46424866 4.63587952 C-4.98479797 3.97877991 -4.50534729 3.3216803 -4.0113678 2.64466858 C-2.12829264 0.13711446 -2.12829264 0.13711446 0 0 Z " fill="#E2EBFE" transform="translate(405.86659240722656,79.87974548339844)"/>
<path d="M0 0 C3.94310054 0.82147928 5.42613957 2.60990635 8 5.625 C8.495 6.12 8.495 6.12 9 6.625 C9 16.855 9 27.085 9 37.625 C47.28 37.625 85.56 37.625 125 37.625 C125 26.735 125 15.845 125 4.625 C130 0.625 130 0.625 133 0.0625 C137.11175628 0.8334543 138.40786448 2.38030645 141 5.625 C141.56762695 9.13012695 141.56762695 9.13012695 141.48828125 13.11328125 C141.47766914 14.1680793 141.47766914 14.1680793 141.46684265 15.2441864 C141.43899212 17.47640227 141.3762832 19.70605077 141.3125 21.9375 C141.28740451 23.45634381 141.26459352 24.9752272 141.24414062 26.49414062 C141.18920007 30.20525248 141.10299739 33.91487541 141 37.625 C142.46808105 37.60143433 142.46808105 37.60143433 143.96582031 37.57739258 C147.60359438 37.5230143 151.24133264 37.48862152 154.87939453 37.46020508 C156.45269822 37.44513636 158.02596002 37.42467755 159.59912109 37.39868164 C161.86306096 37.36221262 164.12644457 37.34525492 166.390625 37.33203125 C167.09181458 37.31654739 167.79300415 37.30106354 168.51544189 37.28511047 C171.57592673 37.28406035 173.70286557 37.46427728 176.41699219 38.93237305 C178.94388171 41.63424304 178.93767885 44.01037351 179 47.625 C177.65437601 50.57255732 176.91445456 52.16777272 174 53.625 C171.21262257 53.72741396 168.44997342 53.76837307 165.66213989 53.76544189 C164.7893731 53.76841302 163.91660631 53.77138414 163.01739204 53.7744453 C160.07554998 53.78315799 157.13374849 53.7846427 154.19189453 53.78613281 C152.08974113 53.79075914 149.98758858 53.79578354 147.88543701 53.80117798 C142.16232921 53.81432112 136.43923315 53.82075056 130.71611261 53.82518864 C127.14375684 53.82811603 123.57140429 53.83222018 119.99905014 53.83669281 C108.83124402 53.85037223 97.66344526 53.86003694 86.49563134 53.8638947 C73.58662947 53.86837794 60.67773336 53.88593634 47.76876366 53.9148953 C37.80186212 53.93648127 27.8349904 53.94659732 17.86806571 53.94793582 C11.90990825 53.94898598 5.95185013 53.95493865 -0.00628281 53.97275543 C-5.60899064 53.98918303 -11.21152387 53.99141752 -16.81424713 53.98261642 C-18.87342164 53.98184322 -20.93260534 53.98622587 -22.99175644 53.99607468 C-25.79743897 54.0087097 -28.60249519 54.00296356 -31.40817261 53.99249268 C-32.6376436 54.00457728 -32.6376436 54.00457728 -33.8919524 54.01690602 C-37.14992793 53.98836282 -39.57124877 53.8519754 -42.47839546 52.31296921 C-44.92890629 49.59453172 -44.93829758 47.20374045 -45 43.625 C-43.65437601 40.67744268 -42.91445456 39.08222728 -40 37.625 C-37.59161322 37.53860131 -35.21266119 37.50932236 -32.8046875 37.52734375 C-32.09724396 37.5287587 -31.38980042 37.53017365 -30.66091919 37.53163147 C-28.39890331 37.537234 -26.13698602 37.54978682 -23.875 37.5625 C-22.34244935 37.56751468 -20.80989714 37.57207764 -19.27734375 37.57617188 C-15.51819112 37.58720423 -11.75911228 37.60447048 -8 37.625 C-8.02618408 36.68180908 -8.05236816 35.73861816 -8.0793457 34.7668457 C-8.16476922 31.25366855 -8.22734298 27.74160092 -8.2746582 24.2277832 C-8.29974109 22.70970199 -8.3338166 21.19174082 -8.37719727 19.67407227 C-8.43813293 17.48684035 -8.46626895 15.30120961 -8.48828125 13.11328125 C-8.51446533 11.79884033 -8.54064941 10.48439941 -8.56762695 9.13012695 C-7.72457369 3.92422775 -5.19753339 1.08281946 0 0 Z " fill="#2A3C65" transform="translate(193,458.375)"/>
<path d="M0 0 C4.29 0.66 8.58 1.32 13 2 C15.38728324 7.96820809 15.38728324 7.96820809 14 12 C12.1875 14.82421875 12.1875 14.82421875 10 17.6875 C6.01843699 22.94174118 4.51196134 25.66540807 4.59765625 32.2734375 C5.79578296 40.39278159 12.7621472 46.27946274 19 51 C23.19925171 53.09962586 28.75436254 52.71193217 33.15625 51.31640625 C36.8852969 49.53327073 39.97012567 47.26741325 43.1875 44.6875 C46.64326324 42.01621531 46.64326324 42.01621531 49.75 41.875 C52.53920931 43.26960466 54.01706186 44.57199358 56 47 C56.87109375 50.42578125 56.87109375 50.42578125 57.4375 54.3125 C58.46284956 60.39799718 59.68915933 64.47887442 64 69 C66.13375737 70.45050496 66.13375737 70.45050496 68 71 C67.38888772 74.18900747 66.33982214 76.21671584 64.40234375 78.80859375 C63.85610352 79.54505127 63.30986328 80.28150879 62.74707031 81.0402832 C62.14991211 81.83136475 61.55275391 82.62244629 60.9375 83.4375 C60.0088916 84.68309692 60.0088916 84.68309692 59.06152344 85.95385742 C53.65786071 93.18189705 48.16987497 100.34626045 42.68334961 107.51147461 C39.03703501 112.28456636 35.45415963 117.08620084 32 122 C27.65103071 128.16289836 23.12770416 134.1832199 18.5625 140.1875 C17.86318359 141.10982422 17.16386719 142.03214844 16.44335938 142.98242188 C15.78271484 143.84802734 15.12207031 144.71363281 14.44140625 145.60546875 C13.55497437 146.76792114 13.55497437 146.76792114 12.65063477 147.95385742 C11.18741803 149.76767483 9.65954437 151.36982393 8 153 C7.99453156 151.35961761 7.99453156 151.35961761 7.98895264 149.68609619 C7.95202993 139.38586251 7.89428718 129.08592854 7.81609726 118.785923 C7.77656853 113.49040731 7.74440653 108.19505925 7.72900391 102.89941406 C7.71387287 97.78989606 7.67949062 92.68083876 7.63169098 87.57152557 C7.61684046 85.62111157 7.60895689 83.6706318 7.60811615 81.72016144 C7.60575576 78.99034869 7.57875174 76.26181877 7.54589844 73.53222656 C7.5509288 72.72374268 7.55595917 71.91525879 7.56114197 71.08227539 C7.49472888 67.52149561 7.31525445 65.42180847 5.15338135 62.52923584 C2.98788769 60.83403713 2.98788769 60.83403713 0 60 C0 40.2 0 20.4 0 0 Z " fill="#E2EBFE" transform="translate(16,118)"/>
<path d="M0 0 C0.66 0 1.32 0 2 0 C3.19140625 1.5390625 3.19140625 1.5390625 4.5625 3.625 C10.63809724 11.9059222 20.14505301 16.60116675 30 19 C35.66523487 19.53115428 41.32749864 19.30570367 47 19 C46.94199219 20.13695312 46.88398438 21.27390625 46.82421875 22.4453125 C46.34056208 36.04242491 48.06551775 47.4435209 57.21875 58.22265625 C59.63202205 60.63063604 62.03014526 62.33398393 65 64 C60.48746518 68.7632312 60.48746518 68.7632312 57.8125 70.0625 C55.36909082 71.32633233 55.18340034 72.49183751 54 75 C53.35362799 76.18342216 52.70494207 77.36558174 52.0546875 78.546875 C46.7102927 88.6683757 44.63694202 96.50534614 46 108 C46.33 108.99 46.66 109.98 47 111 C45.76765625 110.94199219 44.5353125 110.88398438 43.265625 110.82421875 C29.5845604 110.37150593 19.68569455 112.24933899 8.84765625 121.21875 C6.36452548 123.61263505 4.68424782 125.99764518 3 129 C0 128 0 128 -2.0625 124.8125 C-7.484001 116.93841521 -17.89065673 112.79504613 -27 111 C-32.66595412 110.57861753 -38.32954118 110.75813209 -44 111 C-43.94199219 109.76765625 -43.88398438 108.5353125 -43.82421875 107.265625 C-43.33618595 92.51867682 -46.09392304 81.4558649 -56 70 C-58.25747875 68.05055929 -60.4452865 66.56411031 -63 65 C-58.44303797 61.20253165 -58.44303797 61.20253165 -55.8125 60 C-53.45873836 58.70137289 -53.12114171 57.41241777 -52 55 C-51.69320312 54.42121094 -51.38640625 53.84242188 -51.0703125 53.24609375 C-45.39875751 42.3951435 -41.35568162 31.29587095 -45 19 C-43.94683594 19.06960937 -42.89367187 19.13921875 -41.80859375 19.2109375 C-28.57508046 19.813233 -17.08134367 17.19791644 -6.578125 8.58984375 C-3.99214347 5.98465939 -2.06062147 3.03032569 0 0 Z M-32.37109375 34.9140625 C-42.39639081 47.75221269 -44.59257249 60.12684544 -43 76 C-41.87423953 80.39988453 -40.29602881 84.09411191 -38 88 C-37.34 89.134375 -36.68 90.26875 -36 91.4375 C-33.83170839 94.21562362 -31.58145444 96.59864703 -29 99 C-28.50886719 99.4846875 -28.01773438 99.969375 -27.51171875 100.46875 C-18.24612387 109.13727791 -7.33716071 111.52509078 5.01171875 111.2734375 C15.58093282 110.5488097 23.92020992 106.70936632 32 100 C32.97066406 99.21496094 32.97066406 99.21496094 33.9609375 98.4140625 C41.51092375 91.65534118 46.7951651 80.56398747 47.37109375 70.4609375 C47.70971847 56.41489431 45.50700896 45.81832054 36 35 C35.47664063 34.38382813 34.95328125 33.76765625 34.4140625 33.1328125 C26.75604955 24.7557373 15.70874441 20.63586253 4.54296875 19.71484375 C-10.0472106 19.35127482 -22.2389829 24.12275407 -32.37109375 34.9140625 Z " fill="#FBC94E" transform="translate(258,144)"/>
<path d="M0 0 C44.22 0 88.44 0 134 0 C134 5.61 134 11.22 134 17 C131.69 17.99 129.38 18.98 127 20 C118.97227028 28.02772972 125.34387016 42.65228471 125 54 C86.72 54 48.44 54 9 54 C9 50.04 9 46.08 9 42 C11.13227051 41.97812622 11.13227051 41.97812622 13.30761719 41.95581055 C18.6306146 41.89741266 23.95320719 41.82018495 29.27587891 41.73754883 C31.57040794 41.70449342 33.8650145 41.67640255 36.15966797 41.65356445 C39.47657007 41.61965963 42.79277392 41.56732821 46.109375 41.51171875 C47.11925476 41.50532883 48.12913452 41.4989389 49.1696167 41.49235535 C65.38097989 41.16495317 79.85265429 35.25957735 93 26 C93.63550781 25.56300781 94.27101563 25.12601562 94.92578125 24.67578125 C102.60911954 18.79405332 107.75878956 9.48242087 112 1 C75.04 1 38.08 1 0 1 C0 0.67 0 0.34 0 0 Z " fill="#ADCAF3" transform="translate(193,442)"/>
<path d="M0 0 C8.59063749 4.43538349 13.98697111 10.91144222 18.25 19.4375 C19.16661826 29.91479474 19.27135936 38.93113035 12.25 47.4375 C5.37403552 54.30080156 -1.48043157 57.49705718 -11.125 57.9375 C-17.7044819 57.77739673 -22.28850096 56.00886276 -27.75 52.4375 C-29.35875 51.385625 -29.35875 51.385625 -31 50.3125 C-38.12841135 42.86006996 -40.59744548 35.71985883 -40.39233398 25.57958984 C-40.04162127 19.56408965 -38.66046779 15.12808636 -34.75 10.4375 C-34.21890625 9.79425781 -33.6878125 9.15101563 -33.140625 8.48828125 C-24.76469079 -0.67529815 -11.87390282 -4.84058059 0 0 Z " fill="#27CFFD" transform="translate(270.75,181.5625)"/>
<path d="M0 0 C0.515625 0.66 1.03125 1.32 1.5625 2 C2.366875 2.99 3.17125 3.98 4 5 C4.48597656 5.65097656 4.97195312 6.30195312 5.47265625 6.97265625 C9.90963581 12.58443891 14.22131768 14.90240075 21 17 C22.485 17.495 22.485 17.495 24 18 C26.28932678 18.12093495 28.58251324 18.17538326 30.875 18.1875 C32.69644531 18.20876953 32.69644531 18.20876953 34.5546875 18.23046875 C37.84344421 18.01047255 40.05365948 17.41715618 43 16 C42.76216797 16.75216797 42.76216797 16.75216797 42.51953125 17.51953125 C40.57386509 26.80898999 41.02029486 36.83654896 46 45 C46.54333984 46.05960938 46.54333984 46.05960938 47.09765625 47.140625 C49.73404194 51.96655136 52.57224061 54.4263601 57.42578125 56.9921875 C57.94527344 57.32476562 58.46476562 57.65734375 59 58 C59 58.66 59 59.32 59 60 C57.6403039 60.93016247 56.23508116 61.79419404 54.8125 62.625 C49.98252312 65.74894109 47.50176034 68.87874941 45 74 C44.401875 75.155 43.80375 76.31 43.1875 77.5 C40.760151 84.35691807 40.77947611 95.0519091 43 102 C42.29746094 101.6803125 41.59492188 101.360625 40.87109375 101.03125 C31.47059278 97.65474353 22.78125974 100.35162975 14.09375 104.296875 C9.63187187 106.75316144 6.06666445 109.16790551 3.6875 113.75 C3.130625 114.8225 2.57375 115.895 2 117 C1.34 117 0.68 117 0 117 C-0.78618222 115.66651401 -1.52771149 114.30664816 -2.25 112.9375 C-6.82642048 105.7133749 -15.13126478 102.62291174 -23 100 C-28.72662827 99.69434009 -34.37844743 99.78452917 -40 101 C-39.76410156 99.93265625 -39.76410156 99.93265625 -39.5234375 98.84375 C-37.49852676 87.84274239 -39.45371486 77.88961976 -45.64453125 68.5078125 C-49.24837822 64.06605077 -52.57836376 61.7703302 -58 60 C-58 59.34 -58 58.68 -58 58 C-56.80375 57.484375 -55.6075 56.96875 -54.375 56.4375 C-46.22238235 52.26773083 -42.94739384 45.87665213 -39.90625 37.42578125 C-38.08274821 30.53263007 -38.47319368 23.90817284 -40 17 C-39.360625 17.165 -38.72125 17.33 -38.0625 17.5 C-30.33657231 18.76137595 -24.2349633 17.89898357 -17 15 C-16.22269531 14.7215625 -15.44539063 14.443125 -14.64453125 14.15625 C-7.40882022 11.3443824 -3.29086044 6.97968539 0 0 Z M-30.25 32.125 C-38.98557911 42.69505072 -40.18334473 53.52906476 -39.23925781 66.79638672 C-38.73740722 71.41853306 -37.4632746 75.08215079 -35 79 C-34.51402344 79.7734375 -34.02804688 80.546875 -33.52734375 81.34375 C-27.14670934 90.39429526 -17.81885625 96.58778505 -7 99 C6.24695298 100.25030978 18.41677104 97.53513607 29.14453125 89.3671875 C38.098471 80.97896507 42.0086665 69.56451581 42.4375 57.5 C42.14299266 46.69286103 37.73268831 37.18341565 30.41015625 29.28515625 C21.19842718 20.7670162 9.88955036 17.47841166 -2.43359375 17.6875 C-13.41094517 18.64937088 -22.70037173 24.32136554 -30.25 32.125 Z " fill="#FC5891" transform="translate(94,37)"/>
<path d="M0 0 C7.20935254 4.01275283 12.4743198 10.02267931 14.8125 18 C15.92743998 26.36204988 13.80516454 32.72663186 9.0234375 39.5546875 C4.22134867 44.86583168 -3.14584165 48.30195192 -10.3125 48.6875 C-17.82444184 48.14490388 -23.98871502 44.64525733 -29.125 39.25 C-33.74350961 33.4086226 -35.51631578 27.87695695 -35.1875 20.4375 C-34.14731925 12.51442112 -30.18388627 7.13760487 -23.99609375 2.25390625 C-16.37051013 -3.03294546 -8.40863082 -3.78260596 0 0 Z " fill="#FBFCFC" transform="translate(105.1875,73)"/>
<path d="M0 0 C4.63749828 2.57719684 7.77730023 5.5716538 10.75 9.9375 C11.678125 11.29875 11.678125 11.29875 12.625 12.6875 C14.84920739 19.11298801 14.64790231 25.51715047 12.0625 31.8125 C8.6417673 38.54594227 2.94668936 43.53860355 -4.25 45.9375 C-12.5585574 46.63547251 -19.01743255 45.72714673 -26 41.125 C-31.80844382 35.47790184 -34.29412786 29.55857664 -34.625 21.5625 C-34.46667366 15.07111989 -32.86889852 10.7609112 -28.44921875 5.99609375 C-20.06085851 -1.80589568 -10.74751121 -4.89698631 0 0 Z " fill="#2D3D67" transform="translate(270.25,369.0625)"/>
<path d="M0 0 C0.66 0.70125 1.32 1.4025 2 2.125 C2.99234052 3.09126242 3.99314317 4.04887325 5 5 C5.52916016 5.515625 6.05832031 6.03125 6.60351562 6.5625 C12.53284322 11.70167885 17.86465554 11.89326637 25.5 11.875 C26.60859375 11.895625 27.7171875 11.91625 28.859375 11.9375 C31.57367553 11.98429829 34.28538133 12.00446903 37 12 C35.8517111 15.09003065 34.7053509 17.67972599 32.65234375 20.26171875 C32.21212891 20.82310547 31.77191406 21.38449219 31.31835938 21.96289062 C30.86267578 22.53201172 30.40699219 23.10113281 29.9375 23.6875 C26.67441696 27.64929631 26.67441696 27.64929631 24 32 C8.49 32 -7.02 32 -23 32 C-18.50273772 24.12979101 -18.50273772 24.12979101 -15.72265625 20.625 C-15.12646484 19.86703125 -14.53027344 19.1090625 -13.91601562 18.328125 C-13.30435547 17.55984375 -12.69269531 16.7915625 -12.0625 16 C-7.9089674 10.74972337 -3.84264185 5.48323846 0 0 Z " fill="#E1EAFD" transform="translate(235,306)"/>
<path d="M0 0 C1.91015625 0.4453125 1.91015625 0.4453125 4.47265625 2.5078125 C6.3464113 6.33679022 6.03978326 8.37865526 4.91015625 12.4453125 C3.84765625 14.3828125 3.84765625 14.3828125 1.91015625 15.4453125 C-1.18329153 15.83813127 -3.1355958 16.07539355 -6.08984375 15.4453125 C-9.11775416 12.87158866 -9.95147084 11.29284656 -10.58984375 7.3828125 C-10.08984375 4.4453125 -10.08984375 4.4453125 -8.58984375 2.0703125 C-5.55625142 0.09847749 -3.57053359 -0.20021684 0 0 Z " fill="#DEE7FA" transform="translate(262.08984375,382.5546875)"/>
<path d="M0 0 C-0.61188161 3.23757355 -1.70727738 5.27241727 -3.6875 7.890625 C-4.22117187 8.59960938 -4.75484375 9.30859375 -5.3046875 10.0390625 C-5.86414063 10.76867187 -6.42359375 11.49828125 -7 12.25 C-7.55945313 12.99507813 -8.11890625 13.74015625 -8.6953125 14.5078125 C-11.74157602 18.52534845 -11.74157602 18.52534845 -13 20 C-13.33 20 -13.66 20 -14 20 C-14.06254737 16.99772633 -14.04189533 14.00249842 -14 11 C-14.01933594 10.26136719 -14.03867187 9.52273438 -14.05859375 8.76171875 C-14 6.6875 -14 6.6875 -13 3 C-9.09514459 -0.3209518 -4.95486395 -1.85807398 0 0 Z " fill="#DAE4F8" transform="translate(298,283)"/>
</svg>
